<?xml version="1.0" encoding="UTF-8"?>
<svg id="Layer_1" xmlns="http://www.w3.org/2000/svg" xmlns:xlink="http://www.w3.org/1999/xlink" viewBox="0 0 525 225">
  <defs>
    <style>
      .cls-1 {
        fill: none;
      }

      .cls-2 {
        fill: #002474;
      }

      .cls-3 {
        fill: #6a0000;
      }

      .cls-4 {
        isolation: isolate;
      }

      .cls-5 {
        fill: #c60000;
      }

      .cls-6 {
        fill: #fff;
      }

      .cls-7 {
        fill: #7d0000;
      }

      .cls-8 {
        clip-path: url(#clippath);
      }
    </style>
    <clipPath id="clippath">
      <polygon class="cls-1" points="17.13 15.38 447.06 15.38 516.46 205.54 86.54 205.54 17.13 15.38"/>
    </clipPath>
  </defs>
  <g class="cls-4">
    <polygon class="cls-7" points="17.13 15.38 86.54 205.54 77.74 211.97 8.34 21.8 17.13 15.38"/>
    <g>
      <polygon class="cls-5" points="17.13 15.38 447.06 15.38 516.46 205.54 86.54 205.54 17.13 15.38"/>
      <g class="cls-4">
        <g class="cls-8">
          <g>
            <path class="cls-6" d="M35.01,28.05h3.64c2.43,0,3.21,1.03,4.3,4.04l8.57,23.47c1.1,3.01,1.08,4.06-1.35,4.06h-3.64s-11.52-31.56-11.52-31.56M66.71,57.27l-9.81-26.87c-4.43-12.13-8.7-15.65-20.15-15.65H15.59s33.31,91.27,33.31,91.27h14.57s-12.08-33.1-12.08-33.1h6.6c11.46,0,13.15-3.52,8.73-15.65"/>
            <path class="cls-6" d="M78.56,28.05h3.79c2.43,0,3.21,1.03,4.3,4.04l6.33,17.33c1.15,3.15,1.08,4.06-1.35,4.06h-3.79s-9.28-25.43-9.28-25.43M130.08,106.02c-2.75-3.52-4.73-7.82-6.39-12.37l-6.81-18.65c-3.24-8.88-6.43-13.18-12.41-14.74,4.84-1.56,4.93-5.74,1.7-14.6l-5.57-15.26c-4.43-12.13-8.7-15.65-20.28-15.65h-21.19s33.31,91.27,33.31,91.27h14.57s-14.32-39.24-14.32-39.24h2.83c2.98,0,4.46,1.83,5.65,5.09l8.47,23.2c1.62,4.45,3.32,8.75,5.34,10.95h15.1"/>
            <path class="cls-6" d="M124.17,31.43c-1.09-2.98-1.07-4.03,1.36-4.03h1.09c2.43,0,3.06,1.05,4.15,4.03l21.14,57.92c1.09,2.98,1.22,4.04-1.21,4.04h-1.09c-2.43,0-3.22-1.05-4.3-4.04l-21.14-57.92M167.09,91.04l-22.37-61.3c-4.43-12.13-8.67-15.65-20.13-15.65h-6.75c-11.61,0-13.28,3.52-8.86,15.65l22.37,61.3c4.43,12.13,8.67,15.65,20.28,15.65h6.75c11.46,0,13.13-3.52,8.7-15.65"/>
            <polyline class="cls-6" points="180.87 27.91 176.07 14.75 145.85 14.75 150.65 27.91 158.49 27.91 187 106.02 201.57 106.02 173.06 27.91 180.87 27.91"/>
            <polyline class="cls-6" points="243.65 106.02 238.8 92.72 225.98 92.72 215.94 65.22 226.05 65.22 221.2 51.92 211.08 51.92 202.37 28.05 215.2 28.05 210.34 14.75 182.95 14.75 216.26 106.02 243.65 106.02"/>
            <path class="cls-6" d="M280.8,91.04l-8.9-24.38h-13.76s8.28,22.69,8.28,22.69c1.09,2.98,1.19,4.04-1.23,4.04h-1.06c-2.43,0-3.22-1.05-4.3-4.04l-21.14-57.92c-1.09-2.98-1.07-4.03,1.36-4.03h1.06c2.43,0,3.09,1.05,4.18,4.03l6.86,18.8h13.76s-7.48-20.49-7.48-20.49c-4.43-12.13-8.67-15.65-20.15-15.65h-5.92c-11.61,0-13.28,3.52-8.86,15.65l22.37,61.3c4.43,12.13,8.67,15.65,20.28,15.65h5.92c11.48,0,13.16-3.52,8.73-15.65"/>
            <polyline class="cls-6" points="330.9 106.02 297.59 14.75 283.02 14.75 296.59 51.92 289.99 51.92 276.42 14.75 261.86 14.75 295.17 106.02 309.73 106.02 294.84 65.22 301.44 65.22 316.33 106.02 330.9 106.02"/>
            <polyline class="cls-6" points="339.62 27.91 334.81 14.75 304.62 14.75 309.42 27.91 317.24 27.91 345.75 106.02 360.31 106.02 331.8 27.91 339.62 27.91"/>
            <polyline class="cls-6" points="389.57 106.02 356.26 14.75 341.69 14.75 375.01 106.02 389.57 106.02"/>
            <path class="cls-6" d="M386.09,31.43c-1.09-2.98-1.07-4.03,1.36-4.03h1.09c2.43,0,3.06,1.05,4.15,4.03l21.14,57.92c1.09,2.98,1.22,4.04-1.21,4.04h-1.09c-2.43,0-3.22-1.05-4.31-4.04l-21.14-57.92M429.02,91.04l-22.37-61.3c-4.43-12.13-8.67-15.65-20.13-15.65h-6.75c-11.61,0-13.28,3.52-8.86,15.65l22.37,61.3c4.43,12.13,8.67,15.65,20.28,15.65h6.75c11.46,0,13.13-3.52,8.7-15.65"/>
            <path class="cls-6" d="M480.62,106.02l-33.31-91.27h-12.54s10.95,30,10.95,30c2.33,6.38,4.99,12.91,7.59,19.68-3.24-6.65-6.15-13.18-9.61-19.68l-15.65-30h-17.68s33.31,91.27,33.31,91.27h12.39s-14.13-38.73-14.13-38.73c-2.33-6.38-4.93-13.15-7.44-19.68,3.19,6.53,6.25,13.03,9.74,19.68l20.48,38.73h15.91"/>
            <path class="cls-2" d="M84.48,161.33h3.64c2.43,0,3.21,1.03,4.31,4.03l8.57,23.47c1.1,3.01,1.07,4.03-1.36,4.03h-3.64s-11.51-31.54-11.51-31.54M116.18,190.52l-9.81-26.87c-4.43-12.13-8.66-15.62-20.14-15.62h-6.6s-12.09-33.13-12.09-33.13h-14.57s33.31,91.27,33.31,91.27h21.17c11.48,0,13.16-3.52,8.73-15.65"/>
            <path class="cls-2" d="M130.29,167.44h3.77c2.43,0,3.17.93,4.31,4.06l6.33,17.33c1.1,3.01,1.07,4.03-1.36,4.03h-3.77s-9.28-25.43-9.28-25.43M134.18,114.9h-15.12c-.41,2.2,1.03,6.5,2.66,10.95l8.47,23.2c1.19,3.25,1.05,5.09-1.91,5.09h-2.83s-14.32-39.24-14.32-39.24h-14.57s33.31,91.27,33.31,91.27h21.17c11.61,0,13.28-3.52,8.86-15.65l-5.57-15.26c-3.23-8.85-6.38-13.03-12.33-14.6,4.82-1.57,4.86-5.87,1.62-14.74l-6.81-18.66c-1.66-4.55-2.83-8.85-2.62-12.37"/>
            <path class="cls-2" d="M161.56,131.57c-1.09-2.98-1.07-4.03,1.36-4.03h1.09c2.43,0,3.09,1.05,4.18,4.03l21.14,57.92c1.09,2.98,1.2,4.03-1.23,4.03h-1.09c-2.43,0-3.22-1.05-4.31-4.03l-21.14-57.92M204.5,191.18l-22.37-61.3c-4.43-12.13-8.7-15.65-20.15-15.65h-6.75c-11.58,0-13.28,3.52-8.86,15.65l22.37,61.3c4.43,12.13,8.7,15.65,20.28,15.65h6.75c11.46,0,13.15-3.52,8.73-15.65"/>
            <polyline class="cls-2" points="246.8 206.17 242 193.02 234.16 193.02 205.64 114.9 191.08 114.9 219.59 193.02 211.77 193.02 216.58 206.17 246.8 206.17"/>
            <polyline class="cls-2" points="281.04 206.17 276.18 192.87 263.39 192.87 254.68 169.01 264.79 169.01 259.94 155.71 249.82 155.71 239.79 128.2 252.58 128.2 247.73 114.9 220.34 114.9 253.65 206.17 281.04 206.17"/>
            <path class="cls-2" d="M318.21,191.18l-7.47-20.46h-13.76s6.85,18.78,6.85,18.78c1.09,2.98,1.2,4.03-1.23,4.03h-1.09c-2.43,0-3.22-1.05-4.31-4.03l-21.14-57.92c-1.09-2.98-1.07-4.03,1.36-4.03h1.09c2.43,0,3.09,1.05,4.18,4.03l8.28,22.69h13.76s-8.9-24.38-8.9-24.38c-4.43-12.13-8.7-15.65-20.15-15.65h-5.94c-11.61,0-13.28,3.52-8.86,15.65l22.37,61.3c4.43,12.13,8.67,15.65,20.28,15.65h5.94c11.46,0,13.15-3.52,8.73-15.65"/>
            <polyline class="cls-2" points="368.31 206.17 335 114.9 320.43 114.9 335.33 155.71 328.7 155.71 313.81 114.9 299.24 114.9 332.55 206.17 347.12 206.17 333.56 169.01 340.18 169.01 353.75 206.17 368.31 206.17"/>
            <polyline class="cls-2" points="405.54 206.17 400.74 193.02 392.9 193.02 364.39 114.9 349.82 114.9 378.33 193.02 370.52 193.02 375.32 206.17 405.54 206.17"/>
            <polyline class="cls-2" points="426.98 206.17 393.67 114.9 379.1 114.9 412.42 206.17 426.98 206.17"/>
            <path class="cls-2" d="M423.48,131.57c-1.09-2.98-1.07-4.03,1.36-4.03h1.09c2.43,0,3.09,1.05,4.18,4.03l21.14,57.92c1.09,2.98,1.19,4.03-1.23,4.03h-1.09c-2.43,0-3.22-1.05-4.31-4.03l-21.14-57.92M466.43,191.18l-22.37-61.3c-4.43-12.13-8.67-15.65-20.15-15.65h-6.75c-11.58,0-13.28,3.52-8.85,15.65l22.37,61.3c4.43,12.13,8.7,15.65,20.28,15.65h6.75c11.48,0,13.15-3.52,8.73-15.65"/>
            <path class="cls-2" d="M518.03,206.17l-33.31-91.27h-15.93s7.81,38.73,7.81,38.73c1.34,6.65,3.04,13.18,4.6,19.68-2.22-6.5-4.58-13.3-6.91-19.68l-14.13-38.73h-12.42s33.31,91.27,33.31,91.27h17.68s-6.21-29.97-6.21-29.97c-1.32-6.53-3.15-13.06-4.77-19.71,2.33,6.8,4.45,13.3,6.79,19.71l10.94,29.97h12.54"/>
          </g>
        </g>
      </g>
    </g>
    <polygon class="cls-3" points="86.54 205.54 516.46 205.54 507.66 211.97 77.74 211.97 86.54 205.54"/>
  </g>
</svg>