<?xml version="1.0" encoding="UTF-8"?>
<svg id="Layer_1" xmlns="http://www.w3.org/2000/svg" xmlns:xlink="http://www.w3.org/1999/xlink" viewBox="0 0 525 225">
  <defs>
    <style>
      .cls-1 {
        fill: none;
      }

      .cls-2 {
        isolation: isolate;
      }

      .cls-3 {
        clip-path: url(#clippath-1);
      }

      .cls-4 {
        fill: #fff;
      }

      .cls-5 {
        fill: #00049f;
      }

      .cls-6 {
        clip-path: url(#clippath);
      }
    </style>
    <clipPath id="clippath">
      <path class="cls-1" d="M62.24,183.27c-11.51,0-19.92-23.43-29.93-51.35-11.84-32.99-21.44-59.74-6.31-70.6,2.34-1.68,4.54-2.46,6.64-2.46h429.92c-2.1,0-4.31.78-6.64,2.46-15.13,10.86-5.54,37.61,6.31,70.6,10.01,27.91,18.42,51.35,29.93,51.35-128.98,0-300.94,0-429.92,0Z"/>
    </clipPath>
    <clipPath id="clippath-1">
      <path class="cls-1" d="M32.65,58.86h429.92c11.51,0,19.92,23.43,29.93,51.35,11.84,32.99,21.43,59.74,6.3,70.6-2.34,1.68-4.54,2.46-6.64,2.46H62.24c2.1,0,4.31-.78,6.64-2.46,15.13-10.86,5.54-37.61-6.3-70.6-10.02-27.91-18.42-51.35-29.93-51.35Z"/>
    </clipPath>
  </defs>
  <g class="cls-2">
    <g class="cls-2">
      <g class="cls-6">
        <g>
          <path class="cls-5" d="M63.55,170.31h3.62c2.57-.09,1.95-1.41.11-5.32-4.26-9-8.41-20.59-12.89-33.07-1.04-2.91-2.07-5.77-3.06-8.57-2.18-6.09-3.06-7.64-5.52-7.77h-3.62c1.78,5.23,3.74,10.69,5.77,16.34,5.42,15.11,10.37,28.91,15.6,38.39M64.62,120.04c1.35,3.85,2.77,7.82,4.23,11.88,4.87,13.58,9.36,26.11,14.02,35.39q7.34,14.38-3.34,14.48h-21.05c-9.11-5.56-16.47-26.09-25-49.87-11.84-32.99-21.44-59.74-6.31-70.6,2.27-1.63,4.42-2.41,6.47-2.46h14.47c-2.05.04-4.2.82-6.47,2.46-8.43,6.05-9.19,17.03-6.16,31.26h6.58c11.99.39,14.6,4.85,22.55,27.46"/>
          <path class="cls-5" d="M106.84,170.31h3.74c2.37-.09,2.16-1.02.13-5.32-3.86-8.15-7.63-18.43-11.64-29.57-2.48-6.8-3.5-7.86-5.7-7.97h-3.74c.53,1.48,1.06,2.97,1.6,4.48,5.42,15.11,10.37,28.91,15.6,38.39M114.32,58.86c-3.92.17-8.95,1.19-13.13,7.61-3.42,5.69-3.67,13.51-2.01,22.91,3.39,18.45,4,21.78-.04,25.02,5.59,2.9,9.37,7.66,16.98,28.19,3.44,9.41,6.76,17.94,10.17,24.72q7.34,14.38-3.46,14.48h-21.05c-9.11-5.56-16.47-26.09-25-49.87-11.84-32.99-21.44-59.74-6.31-70.6,2.27-1.63,4.42-2.41,6.47-2.46h14.47c-2.05.04-4.2.82-6.47,2.46-10.33,7.41-9.14,22.22-3.58,41.37h2.81c2.5-.38,3.07-1.65,1.56-8.44-2.83-12.36-3.01-22.39,1.86-29.06,4.27-5.41,8.51-6.22,11.73-6.33h15"/>
          <path class="cls-5" d="M148.65,165.88c2.28,4.6,3.27,5.07,5.54,5.23h1.06c2.4-.19,1.98-1.06-.04-5.23-4.41-9.12-8.69-21.06-13.32-33.96-9.23-25.71-17.09-47.62-12.96-61.18,1.2-3.82,1.22-3.89-.96-4.02h-1.06c-2.04.11-3.36.44-4.54,4.02-4.13,13.56,3.73,35.48,12.96,61.18,4.63,12.9,8.91,24.84,13.32,33.96M129.55,58.86h18.86s.85,0,.85,0q2.21.03,2.77.57-7.49,8.49-7.99,9.54c-5.46,13.41,2.69,36.12,12.33,62.96,5.03,14.01,9.65,26.9,14.46,36.26q5.41,10.63,5.71,12.19c-1.51,1.71-2.58,1.71-15.7,1.71-14.47-.26-18.56-1.57-25.51-13.9-4.81-9.36-9.44-22.24-14.46-36.26-9.64-26.84-17.78-49.55-12.34-62.94,5.1-10.11,10.75-10.11,21.02-10.13"/>
          <path class="cls-5" d="M208.63,170.46c2.97,5.36,6.03,9.32,9.32,11.32h-30.02c-3.29-2.01-6.35-5.97-9.32-11.32h7.79c-5.26-9.48-10.23-23.35-15.68-38.54-11.84-32.99-21.44-59.74-6.31-70.6,2.27-1.63,4.42-2.41,6.47-2.46h14.47c-2.05.04-4.2.82-6.47,2.46-15.13,10.86-5.54,37.61,6.31,70.6,5.45,15.19,10.42,29.06,15.68,38.54h7.76"/>
          <path class="cls-5" d="M227.16,58.86c-2.05.04-4.2.82-6.47,2.46-2.3,1.65-4.03,3.67-5.26,6.02h-12.74c-4.58,8.7-2.41,21.96,2.5,38.07h10.05c2.37,7.79,5.39,16.25,8.59,25.17h-10.05c.16.45.32.89.48,1.34,5.42,15.11,10.37,28.91,15.6,38.39h12.74c3,5.43,6.09,9.45,9.41,11.47h-27.21c-9.11-5.56-16.47-26.09-25-49.87-11.84-32.99-21.44-59.74-6.31-70.6,2.27-1.63,4.42-2.41,6.47-2.46h27.21"/>
          <path class="cls-5" d="M243.32,58.86c-10.26.01-15.91.02-21.01,10.1-5.46,13.41,2.69,36.12,12.33,62.96,5.03,14.01,9.65,26.9,14.46,36.26,7.86,13.9,12.38,13.9,31.39,13.9,7.14-.14,7.73-.25,9.02-1.71q-.12-1.16-5.71-12.19c-4.58-8.91-9-21.03-13.75-34.27h-13.67c4.36,12.13,8.42,23.32,12.6,31.97q1.82,3.79,1.34,4.98c-.7.14-1.64.25-2.35.25-2.55-.18-3.38-.97-5.54-5.23-4.41-9.12-8.69-21.06-13.32-33.96-9.23-25.71-17.09-47.62-12.96-61.18,1.29-3.63,2.27-4.02,5.6-4.02.51.03,1.19.24,1.66.45q.11,1.02-.7,3.57c-2.46,8.08-.67,19.12,3.13,32.16h13.67c-4.08-14.01-5.85-25.71-2.51-33.91,1.86-3.88,5.63-6.19,7.97-9.67q-.82-.45-3.59-.46h-18.05"/>
          <path class="cls-5" d="M313.84,58.86c-2.05.04-4.2.82-6.47,2.46-15.13,10.86-5.54,37.61,6.31,70.6,8.53,23.78,15.89,44.31,25,49.87h-14.47c-9.11-5.56-16.47-26.09-25-49.87-.16-.45-.32-.9-.48-1.34h-6.56c.16.45.32.89.48,1.34,8.53,23.78,15.89,44.31,25,49.87h-14.47c-9.11-5.56-16.47-26.09-25-49.87-11.84-32.99-21.44-59.74-6.31-70.6,2.27-1.63,4.42-2.41,6.47-2.46h14.47c-2.05.04-4.2.82-6.47,2.46-10.81,7.76-9,23.63-2.77,44.09h6.56c-6.23-20.46-8.04-36.33,2.77-44.09,2.27-1.63,4.42-2.41,6.47-2.46h14.47"/>
          <path class="cls-5" d="M366.34,170.46c2.97,5.36,6.03,9.32,9.32,11.32h-30.02c-3.29-2.01-6.35-5.97-9.32-11.32h7.79c-5.26-9.48-10.23-23.35-15.68-38.54-11.84-32.99-21.44-59.74-6.31-70.6,2.27-1.63,4.42-2.41,6.47-2.46h14.47c-2.05.04-4.2.82-6.47,2.46-15.13,10.86-5.54,37.61,6.31,70.6,5.45,15.19,10.42,29.06,15.68,38.54h7.76"/>
          <path class="cls-5" d="M372.13,58.86c-2.05.04-4.2.82-6.47,2.46-15.13,10.86-5.54,37.61,6.31,70.6,8.53,23.78,15.89,44.31,25,49.87h-14.47c-9.11-5.56-16.47-26.09-25-49.87-11.84-32.99-21.44-59.74-6.31-70.6,2.27-1.63,4.42-2.41,6.47-2.46h14.47"/>
          <path class="cls-5" d="M408.87,165.88c2.28,4.6,3.27,5.07,5.54,5.23h1.08c2.37-.19,1.95-1.06-.07-5.23-4.41-9.12-8.69-21.06-13.32-33.96-9.23-25.71-17.09-47.62-12.96-61.18,1.2-3.82,1.22-3.89-.93-4.02h-1.08c-2.04.11-3.36.44-4.54,4.02-4.13,13.56,3.73,35.48,12.96,61.18,4.63,12.9,8.91,24.84,13.32,33.96M389.77,58.86h18.86s.85,0,.85,0q2.21.03,2.77.57-7.49,8.5-7.99,9.54c-5.46,13.41,2.69,36.12,12.33,62.96,5.03,14.01,9.65,26.9,14.46,36.26q5.41,10.63,5.71,12.19c-1.51,1.71-2.58,1.71-15.71,1.71-14.47-.26-18.56-1.57-25.51-13.9-4.81-9.36-9.44-22.24-14.46-36.26-9.64-26.84-17.78-49.55-12.34-62.94,5.1-10.11,10.75-10.11,21.02-10.13"/>
          <path class="cls-5" d="M446.77,58.86c-26.14.94-18.96,32.55-16.61,42.94q1.83,8.8,10.03,36.83c-8.71-24.63-10.15-29.48-12.32-36.83-5.34-18.72-6.34-33.19,3.83-40.49,2.27-1.63,4.42-2.41,6.47-2.46h-12.31c-2.05.04-4.2.82-6.47,2.46-15.13,10.86-5.54,37.61,6.31,70.6,8.53,23.78,15.89,44.31,25,49.87h17.54c-5.37-4.85-9.07-13.62-15.84-37.54-3.5-12.48-7.46-24.82-10.68-37.38,1.23,3.96,4.96,16.02,12.54,36.97,6.89,18.69,13.2,33.38,20.69,37.95h12.28c-9.11-5.56-16.47-26.09-25-49.87-11.84-32.99-21.44-59.74-6.31-70.6,2.27-1.63,4.42-2.41,6.47-2.46h-15.62"/>
        </g>
      </g>
    </g>
    <g class="cls-2">
      <g class="cls-3">
        <g>
          <path class="cls-4" d="M57.02,65.24h3.62c2.49.06,3.59.86,5.61,4.09,5.35,8.76,10.34,22.24,15.76,37.3,2.39,6.73,2.12,7.85.04,7.97h-3.62c-.52-1.45-1.04-2.91-1.57-4.38-6.86-19.12-12.97-36.15-19.84-44.97M69.14,180.62h14.28c10.06-7.49,8.82-22.24,3.29-41.25h6.58c11.92-.95,12.57-5.36,4.35-29.48-6.27-17.47-11.91-33.15-18.09-42.38q-6.5-8.64-46.76-8.64c11.43.2,19.81,23.56,29.78,51.34,11.77,32.8,21.32,59.43,6.56,70.41"/>
          <path class="cls-4" d="M100.31,65.24h3.74c2.48.06,3.59.86,5.61,4.09,3.95,6.47,7.71,15.51,11.58,25.86,2.22,6.03,2.21,7.36-.07,7.47h-3.74c-5.79-15.98-11.17-29.78-17.12-37.42M149.63,180.62c2.39-3.39,3.89-6.19,5.03-11.3,1.45-7.03.17-16-2.62-26.39-6.22-21.87-12.92-25.49-15.78-27.03,4.82-4.33,1.38-15.66-3.05-27.26-3.38-8.56-6.72-15.89-10.23-21.13-6.33-8.64-9.34-8.64-26.05-8.64h-21.03c11.43.2,19.81,23.56,29.78,51.34,11.77,32.8,21.32,59.43,6.56,70.41h14.47c11.91-8.87,7.98-27.93-.16-52.2h2.81c2.26.33,4.19,1.22,6.67,9.16,4.06,13.5,6.11,24.96,3.76,33.34q-.65,2.17-5.17,9.7h15"/>
          <path class="cls-4" d="M146.75,68.59c-1.65-2.61-1.65-2.63-1.61-3.51q.66-.41,1.62-.43h1.06c2.26.12,3.25.47,5.49,3.94,5.94,9.41,11.42,24.69,17.5,41.61,7.73,21.53,14.5,40.41,14.06,53.94-.18,3.77-.87,4.82-3.22,4.9h-1.06c-2.37-.17-2.43-.64-2.28-4.9.44-13.53-6.34-32.41-14.06-53.94-6.07-16.93-11.56-32.21-17.5-41.61M170.12,181.11h6.68c9.85-.07,20.04-.14,22.41-14.83,1.29-13.65-5.79-33.38-13.93-56.07-6.47-18.03-12.27-34.18-18.66-43.37q-6.26-7.98-37.92-7.98h-1.3c-.74.03-1.74.07-2.44.3,1.25,3.19,4.24,5,6.13,7.68,6.4,9.18,12.19,25.34,18.66,43.37,8.14,22.69,15.22,42.42,13.93,56.07-.57,4.93-4.71,9.17-2.85,14.58,2.3.14,3.81.24,9.29.26"/>
          <path class="cls-4" d="M201.92,65.1c-3.08-3.92-6.32-6.18-9.84-6.24h-30.02c3.53.06,6.76,2.33,9.84,6.24h7.76c6.91,8.78,13.04,25.88,19.94,45.1,11.77,32.8,21.32,59.43,6.56,70.41h14.47c14.76-10.98,5.2-37.61-6.56-70.41-6.9-19.22-13.03-36.32-19.94-45.1h7.79"/>
          <path class="cls-4" d="M262.44,180.62c4.04-3.01,6.26-7.18,7.11-12.33h-12.71c1.76-10.66-2.33-25.49-8.26-42.79h10.05c-1.68-4.91-3.52-10.02-5.41-15.29-1.28-3.58-2.54-7.08-3.78-10.48h-10.05c-5.39-14.73-10.47-27.32-16.05-34.49h12.71c-3.11-4-6.38-6.31-9.94-6.37h-27.18c11.43.2,19.81,23.56,29.78,51.34,11.77,32.8,21.32,59.43,6.56,70.41h27.18"/>
          <path class="cls-4" d="M283.86,181.11c-5.22-.04-6.17-.06-9.27-.26-2.23-5.48,2.35-9.63,2.85-14.58,1.29-13.65-5.79-33.38-13.93-56.07-6.47-18.03-12.27-34.18-18.66-43.37-1.9-2.68-4.45-4.83-6.13-7.68q.89-.29,3.72-.3h17.06c11.23.02,14.43.76,20.07,7.98,4.73,6.79,9.13,17.4,13.72,29.76h-13.67c-4.21-11.34-8.27-21.2-12.56-28-2.43-3.65-3.22-3.94-6.57-3.94-.5.03-1.15.22-1.61.43q.08,1.1,1.6,3.51c5.94,9.41,11.42,24.69,17.5,41.61,7.73,21.53,14.5,40.41,14.06,53.94-.15,4.34-.16,4.9,3.37,4.9,2.43-.17,2.97-1,3.22-4.9.31-9.62-3.02-21.94-7.75-36h13.67c5.09,15.12,8.56,28.23,7.62,38.13-2.59,14.83-10.12,14.83-28.31,14.83"/>
          <path class="cls-4" d="M349.15,180.62c14.76-10.98,5.2-37.61-6.56-70.41-9.97-27.79-18.35-51.14-29.78-51.34h-14.47c9.96.18,17.6,17.92,26,40.87h-6.56c-8.4-22.94-16.04-40.69-26-40.87h-14.47c11.43.2,19.81,23.56,29.78,51.34,11.77,32.8,21.32,59.43,6.56,70.41h14.47c12.39-9.22,7.65-29.46-1.16-55.13h6.56c8.8,25.66,13.54,45.91,1.16,55.13h14.47"/>
          <path class="cls-4" d="M359.63,65.1c-3.08-3.92-6.32-6.18-9.84-6.24h-30.02c3.53.06,6.76,2.33,9.84,6.24h7.79c6.91,8.78,13.04,25.88,19.94,45.1,11.77,32.8,21.32,59.43,6.56,70.41h14.47c14.76-10.98,5.2-37.61-6.56-70.41-6.9-19.22-13.03-36.32-19.94-45.1h7.76"/>
          <path class="cls-4" d="M407.44,180.62c14.76-10.98,5.2-37.61-6.56-70.41-9.97-27.79-18.35-51.14-29.78-51.34h-14.47c11.43.2,19.81,23.56,29.78,51.34,11.77,32.8,21.32,59.43,6.56,70.41h14.47"/>
          <path class="cls-4" d="M406.97,68.59c-1.64-2.6-1.64-2.63-1.6-3.51q.66-.41,1.6-.43h1.06c2.26.12,3.25.47,5.49,3.94,5.94,9.41,11.42,24.69,17.5,41.61,7.73,21.53,14.5,40.41,14.06,53.94-.18,3.77-.87,4.82-3.22,4.9h-1.06c-2.35-.17-2.43-.71-2.28-4.9.44-13.53-6.34-32.41-14.06-53.94-6.07-16.93-11.56-32.21-17.5-41.61M430.34,181.11h6.68c9.85-.07,20.04-.14,22.41-14.83,1.29-13.65-5.79-33.38-13.93-56.07-6.47-18.03-12.27-34.18-18.66-43.37q-6.26-7.98-37.92-7.98h-1.3c-.73.03-1.73.07-2.43.3,1.27,3.18,4.25,5,6.14,7.68,6.4,9.18,12.19,25.34,18.66,43.37,8.14,22.69,15.22,42.42,13.93,56.07-.57,4.94-4.7,9.17-2.86,14.58,2.29.14,3.81.24,9.28.26"/>
          <path class="cls-4" d="M497.89,180.62c14.76-10.98,5.2-37.61-6.56-70.41-9.97-27.79-18.35-51.14-29.78-51.34h-12.46c8.03.14,14.56,11.72,21.19,28.23,6,15.04,13.82,36.71,13.89,36.92-7.96-19.42-11.26-27.46-15.9-36.92-10.12-19.95-16.89-27.33-25.89-28.23h-17.56c11.43.2,19.81,23.56,29.78,51.34,11.77,32.8,21.32,59.43,6.56,70.41h12.34c11.76-8.75,8.08-27.43.16-51.25-3.6-10.7-10.1-28.29-13.67-37.38,3.24,7.2,3.72,8.33,15.96,37.38,12.62,30.43,14.11,42.89,6.13,51.25h15.83"/>
        </g>
      </g>
    </g>
  </g>
</svg>