<?xml version="1.0" encoding="UTF-8"?>
<svg id="Layer_1" xmlns="http://www.w3.org/2000/svg" viewBox="0 0 450 200">
  <defs>
    <style>
      .cls-1 {
        stroke: #f4b8fd;
      }

      .cls-1, .cls-2, .cls-3, .cls-4, .cls-5, .cls-6, .cls-7, .cls-8, .cls-9, .cls-10, .cls-11, .cls-12, .cls-13, .cls-14, .cls-15, .cls-16, .cls-17, .cls-18, .cls-19, .cls-20, .cls-21, .cls-22, .cls-23, .cls-24, .cls-25, .cls-26, .cls-27, .cls-28, .cls-29, .cls-30, .cls-31, .cls-32, .cls-33, .cls-34, .cls-35, .cls-36, .cls-37, .cls-38, .cls-39, .cls-40, .cls-41, .cls-42, .cls-43, .cls-44, .cls-45, .cls-46, .cls-47, .cls-48, .cls-49, .cls-50, .cls-51, .cls-52, .cls-53, .cls-54, .cls-55, .cls-56, .cls-57, .cls-58, .cls-59, .cls-60, .cls-61, .cls-62, .cls-63, .cls-64, .cls-65, .cls-66, .cls-67, .cls-68, .cls-69, .cls-70, .cls-71, .cls-72, .cls-73, .cls-74, .cls-75, .cls-76, .cls-77, .cls-78, .cls-79, .cls-80, .cls-81, .cls-82, .cls-83, .cls-84 {
        stroke-miterlimit: 10;
      }

      .cls-1, .cls-2, .cls-3, .cls-4, .cls-5, .cls-6, .cls-7, .cls-8, .cls-9, .cls-10, .cls-11, .cls-12, .cls-13, .cls-14, .cls-15, .cls-16, .cls-17, .cls-18, .cls-19, .cls-20, .cls-21, .cls-22, .cls-24, .cls-25, .cls-26, .cls-27, .cls-28, .cls-29, .cls-30, .cls-31, .cls-32, .cls-33, .cls-34, .cls-35, .cls-36, .cls-37, .cls-38, .cls-39, .cls-40, .cls-41, .cls-42, .cls-43, .cls-44, .cls-45, .cls-46, .cls-47, .cls-48, .cls-49, .cls-50, .cls-51, .cls-52, .cls-53, .cls-54, .cls-55, .cls-56, .cls-57, .cls-58, .cls-59, .cls-60, .cls-61, .cls-62, .cls-63, .cls-64, .cls-65, .cls-66, .cls-67, .cls-68, .cls-69, .cls-70, .cls-71, .cls-72, .cls-73, .cls-74, .cls-75, .cls-76, .cls-77, .cls-78, .cls-79, .cls-80, .cls-81, .cls-82, .cls-83, .cls-84 {
        fill: none;
      }

      .cls-2 {
        stroke: #f8fffc;
      }

      .cls-3 {
        stroke: #1c31c3;
      }

      .cls-4 {
        stroke: #392ccc;
      }

      .cls-5 {
        stroke: #5b26d6;
      }

      .cls-6 {
        stroke: #6125d7;
      }

      .cls-7 {
        stroke: #2d2ec8;
      }

      .cls-8 {
        stroke: #881ee3;
      }

      .cls-9 {
        stroke: #f3a6fd;
      }

      .cls-10 {
        stroke: #eb2bff;
      }

      .cls-11 {
        stroke: #0635bd;
      }

      .cls-12 {
        stroke: #442acf;
      }

      .cls-85 {
        fill: #0053e7;
      }

      .cls-13 {
        stroke: #aa18ed;
      }

      .cls-14 {
        stroke: #f8f9fc;
      }

      .cls-15 {
        stroke: #9f1ae9;
      }

      .cls-16 {
        stroke: #6624d9;
      }

      .cls-86 {
        fill: #00d0d9;
      }

      .cls-17 {
        stroke: #d211f8;
      }

      .cls-18 {
        stroke: #991be8;
      }

      .cls-19 {
        stroke: #f189fd;
      }

      .cls-20 {
        stroke: #941ce6;
      }

      .cls-21 {
        stroke: #282fc7;
      }

      .cls-87 {
        fill: #0089e1;
      }

      .cls-88 {
        fill: #0041e9;
      }

      .cls-88, .cls-23, .cls-89 {
        font-family: HiraKakuStd-W8-83pv-RKSJ-H, 'Hiragino Kaku Gothic Std';
      }

      .cls-88, .cls-89 {
        font-size: 39.61px;
      }

      .cls-22 {
        stroke: #c713f5;
      }

      .cls-23 {
        fill: #fff;
        font-size: 48px;
        stroke: #fff;
      }

      .cls-24 {
        stroke: #0036bb;
      }

      .cls-25 {
        stroke: #c114f3;
      }

      .cls-26 {
        stroke: #6c23db;
      }

      .cls-27 {
        stroke: #f18ffd;
      }

      .cls-28 {
        stroke: #ef6bfe;
      }

      .cls-29 {
        stroke: #ed48fe;
      }

      .cls-30 {
        stroke: #ec36fe;
      }

      .cls-31 {
        stroke: #f3b2fd;
      }

      .cls-32 {
        stroke: #ed4efe;
      }

      .cls-33 {
        stroke: #ea25ff;
      }

      .cls-90 {
        fill: #0077e3;
      }

      .cls-34 {
        stroke: #f7edfc;
      }

      .cls-35 {
        stroke: #f195fd;
      }

      .cls-36 {
        stroke: #f5cafd;
      }

      .cls-37 {
        stroke: #831fe1;
      }

      .cls-38 {
        stroke: #f2a1fd;
      }

      .cls-39 {
        stroke: #5028d2;
      }

      .cls-40 {
        stroke: #332dca;
      }

      .cls-41 {
        stroke: #ee66fe;
      }

      .cls-89 {
        fill: #00f4d5;
      }

      .cls-42 {
        stroke: #d810fa;
      }

      .cls-43 {
        stroke: #b616f0;
      }

      .cls-44 {
        stroke: #f077fe;
      }

      .cls-45 {
        stroke: #bc15f2;
      }

      .cls-91 {
        fill: #0065e5;
      }

      .cls-46 {
        stroke: #1133c0;
      }

      .cls-47 {
        stroke: #f083fe;
      }

      .cls-48 {
        stroke: #3f2bcd;
      }

      .cls-49 {
        stroke: #f07dfe;
      }

      .cls-50 {
        stroke: #1732c2;
      }

      .cls-51 {
        stroke: #ef71fe;
      }

      .cls-52 {
        stroke: #e30efd;
      }

      .cls-53 {
        stroke: #f29bfd;
      }

      .cls-54 {
        stroke: #2230c5;
      }

      .cls-55 {
        stroke: #a519eb;
      }

      .cls-56 {
        stroke: #de0ffc;
      }

      .cls-57 {
        stroke: #eb30ff;
      }

      .cls-92 {
        fill: #00bedb;
      }

      .cls-58 {
        stroke: #5527d4;
      }

      .cls-59 {
        stroke: #f4befd;
      }

      .cls-60 {
        stroke: #f3acfd;
      }

      .cls-61 {
        stroke: #f4c4fd;
      }

      .cls-62 {
        stroke: #ea19ff;
      }

      .cls-63 {
        stroke: #8e1de4;
      }

      .cls-64 {
        stroke: #e913ff;
      }

      .cls-65 {
        stroke: #7721de;
      }

      .cls-66 {
        stroke: #ee60fe;
      }

      .cls-67 {
        stroke: #e90dff;
      }

      .cls-68 {
        stroke: #ec3cfe;
      }

      .cls-69 {
        stroke: #ea1fff;
      }

      .cls-70 {
        stroke: #f7f3fc;
      }

      .cls-71 {
        stroke: #f6dcfc;
      }

      .cls-72 {
        stroke: #cd12f7;
      }

      .cls-93 {
        fill: #00e2d7;
      }

      .cls-73 {
        stroke: #f5d6fd;
      }

      .cls-74 {
        stroke: #ed54fe;
      }

      .cls-94 {
        fill: #009bdf;
      }

      .cls-75 {
        stroke: #ec42fe;
      }

      .cls-76 {
        stroke: #4a29d1;
      }

      .cls-95 {
        fill: #00acdd;
      }

      .cls-77 {
        stroke: #7d20df;
      }

      .cls-78 {
        stroke: #f7e7fc;
      }

      .cls-79 {
        stroke: #0b34be;
      }

      .cls-80 {
        stroke: #f5d0fd;
      }

      .cls-81 {
        stroke: #b017ee;
      }

      .cls-82 {
        stroke: #7222dc;
      }

      .cls-83 {
        stroke: #ee5afe;
      }

      .cls-84 {
        stroke: #f6e1fc;
      }
    </style>
  </defs>
  <path d="M0,0v62.9c.92,1.94,1.63,3.96,1.66,6.28.02,1.69-.65,2.93-1.66,3.73v127.09h450V0H0Z"/>
  <g>
    <path class="cls-2" d="M.77,82.81c20.95-5.17,43.35-9.87,64.67-2.9,19.62,5.96,36.91,19.67,56.62,24.95,4.48,1.23,9.07,2.04,13.68,2.39,27.15,1.98,51.65-11.81,77.2-18.05,71.13-19.24,125.8,50.96,195.97,13.31,13.62-6.53,25.53-11.96,40.58-14.02"/>
    <path class="cls-14" d="M.77,82.02c10.72-2.66,21.99-5.22,33.36-5.95,7.29-.47,14.51-.25,21.57,1.03,3.31.6,6.57,1.48,9.84,2.57,19.46,6.45,36.65,20.15,56.42,25.61,4.48,1.24,9.07,2.08,13.69,2.44,6.62.49,13.08.04,19.44-1.03,19.77-3.31,38.39-12.39,57.53-17.61,14.06-3.83,27.43-4.5,40.58-2.87,16.59,2.08,32.49,7.6,48.13,13.18,11.45,4.08,22.81,8.21,34.39,11.08,22.9,5.64,46.62,6.09,72.38-7.12,6.06-3.11,11.7-5.92,17.4-8.51,4.93-2.24,9.77-3.94,14.87-5.27,3.04-.8,5.98-1.4,9.14-1.82"/>
    <path class="cls-70" d="M.76,81.24c10.63-2.64,21.99-5.23,33.49-5.82,7.38-.38,14.61-.05,21.57,1.3,3.3.64,6.55,1.58,9.8,2.71,19.36,6.73,36.39,20.69,56.21,26.26,4.48,1.26,9.07,2.11,13.7,2.48,6.62.51,13.1.06,19.46-1.03,19.81-3.35,38.25-12.72,57.27-18.19,13.96-4.02,27.26-4.88,40.48-3.31,16.62,2.02,32.5,7.75,47.98,13.54,11.35,4.24,22.58,8.55,34.11,11.56,22.71,5.85,46.87,6.67,72.41-6.55,6.28-3.25,11.89-6.4,17.62-9.33,5.14-2.63,10.02-4.43,15.17-5.88,3.24-.92,6.19-1.56,9.46-1.99"/>
    <path class="cls-34" d="M.75,80.45c10.54-2.63,21.99-5.24,33.62-5.69,7.46-.29,14.7.15,21.58,1.56,3.29.68,6.53,1.67,9.76,2.85,19.26,7.01,36.11,21.27,56.01,26.92,4.48,1.29,9.08,2.15,13.71,2.53,6.63.52,13.12.07,19.49-1.03,19.85-3.39,38.12-13.05,57.01-18.78,13.85-4.2,27.09-5.27,40.38-3.75,16.66,1.96,32.51,7.9,47.84,13.9,11.24,4.4,22.34,8.92,33.83,12.04,22.51,6.11,47.11,7.24,72.44-5.99,6.49-3.39,12.08-6.89,17.84-10.14,5.34-3.02,10.28-4.92,15.46-6.49,3.45-1.04,6.41-1.72,9.77-2.16"/>
    <path class="cls-78" d="M.75,79.66c10.45-2.62,21.98-5.25,33.75-5.55,7.55-.19,14.8.35,21.59,1.83,3.29.71,6.51,1.77,9.73,2.99,19.17,7.29,35.84,21.8,55.81,27.57,4.48,1.31,9.08,2.19,13.72,2.57,6.63.53,13.14.09,19.51-1.03,19.89-3.43,37.99-13.37,56.75-19.36,13.74-4.39,26.92-5.68,40.28-4.19,16.69,1.86,32.52,8.05,47.7,14.27,11.14,4.56,22.1,9.27,33.56,12.52,22.32,6.33,47.35,7.81,72.46-5.43,6.7-3.53,12.27-7.38,18.07-10.96s10.53-5.43,15.76-7.09c3.65-1.16,6.62-1.88,10.08-2.33"/>
    <path class="cls-84" d="M.74,78.87c10.36-2.61,21.98-5.26,33.87-5.42,7.64-.1,14.89.55,21.6,2.09,3.28.75,6.49,1.87,9.69,3.14,19.07,7.57,35.58,22.34,55.6,28.23,4.48,1.33,9.08,2.22,13.73,2.62,6.63.55,13.15.09,19.53-1.04,19.92-3.52,37.85-13.7,56.49-19.94,13.63-4.57,26.75-6.07,40.18-4.63,16.72,1.8,32.53,8.19,47.56,14.63,11.03,4.72,21.86,9.62,33.28,13,22.12,6.56,47.58,8.36,72.49-4.86,6.92-3.67,12.46-7.89,18.29-11.77s10.79-5.94,16.05-7.7c3.85-1.29,6.83-2.04,10.4-2.5"/>
    <path class="cls-71" d="M.73,78.08c10.27-2.6,21.97-5.27,34-5.28,7.73,0,14.98.76,21.6,2.36,3.28.79,6.47,1.96,9.65,3.28,18.97,7.85,35.31,22.87,55.4,28.88,4.48,1.35,9.09,2.26,13.74,2.66,6.64.56,13.17.1,19.56-1.04,19.96-3.57,37.72-14.02,56.23-20.53,13.52-4.75,26.58-6.46,40.08-5.07,16.76,1.73,32.54,8.34,47.41,15,10.93,4.88,21.62,9.97,33,13.48,21.93,6.77,47.82,8.92,72.52-4.3,7.13-3.81,12.64-8.41,18.51-12.59s11.04-6.45,16.35-8.31c4.06-1.42,7.04-2.2,10.71-2.66"/>
    <path class="cls-73" d="M.73,77.3c10.18-2.59,21.97-5.28,34.13-5.15,7.82.09,15.08.96,21.61,2.63,3.27.84,6.45,2.06,9.61,3.42,18.88,8.13,35.04,23.41,55.19,29.54,4.48,1.37,9.09,2.29,13.74,2.7,6.64.57,13.19.11,19.58-1.04,20-3.62,37.58-14.34,55.97-21.11,13.41-4.94,26.41-6.86,39.98-5.51,16.79,1.66,32.55,8.49,47.27,15.36,10.82,5.04,21.39,10.31,32.72,13.96,21.74,6.99,48.05,9.47,72.55-3.74,7.34-3.96,12.82-8.92,18.73-13.4s11.29-6.97,16.64-8.92c4.26-1.55,7.26-2.36,11.03-2.83"/>
    <path class="cls-80" d="M.72,76.51c10.09-2.58,21.97-5.28,34.26-5.01,7.9.18,15.17,1.17,21.62,2.89,3.27.88,6.42,2.15,9.58,3.56,18.78,8.41,34.78,23.94,54.99,30.19,4.48,1.4,9.09,2.33,13.75,2.75,6.65.58,13.2.13,19.61-1.05,20.03-3.67,37.45-14.67,55.71-21.69,13.3-5.12,26.24-7.25,39.89-5.95,16.82,1.59,32.57,8.63,47.13,15.72,10.71,5.2,21.15,10.66,32.44,14.44,21.55,7.21,48.28,10.01,72.57-3.17,7.55-4.1,13-9.45,18.96-14.22,6.36-5.09,11.54-7.49,16.94-9.52,4.46-1.69,7.47-2.52,11.34-3"/>
    <path class="cls-36" d="M.71,75.72c10-2.57,21.96-5.29,34.39-4.88,7.99.27,15.27,1.37,21.63,3.16,3.26.92,6.4,2.25,9.54,3.71,18.68,8.69,34.51,24.47,54.79,30.85,4.48,1.42,9.1,2.36,13.76,2.79,6.65.6,13.22.14,19.63-1.05,20.07-3.72,37.32-14.99,55.45-22.28,13.19-5.3,26.07-7.64,39.79-6.39,16.85,1.53,32.58,8.78,46.99,16.09,10.61,5.36,20.91,11.01,32.17,14.92,21.35,7.42,48.5,10.55,72.6-2.61,7.77-4.24,13.17-9.98,19.18-15.03,6.55-5.51,11.79-8.01,17.23-10.13,4.66-1.82,7.68-2.68,11.65-3.17"/>
    <path class="cls-61" d="M.71,74.93c9.91-2.55,21.96-5.3,34.52-4.75,8.08.37,15.36,1.58,21.63,3.43,3.26.96,6.38,2.34,9.5,3.85,18.59,8.97,34.25,25.01,54.58,31.5,4.47,1.44,9.1,2.4,13.77,2.84,6.66.61,13.24.15,19.65-1.05,20.11-3.77,37.18-15.31,55.19-22.86,13.09-5.48,25.9-8.03,39.69-6.84,16.89,1.46,32.59,8.93,46.84,16.45,10.5,5.52,20.67,11.35,31.89,15.4,21.16,7.64,48.74,11.11,72.63-2.04,7.98-4.38,13.34-10.51,19.4-15.85,6.74-5.94,12.04-8.53,17.53-10.74,4.86-1.96,7.89-2.84,11.97-3.34"/>
    <path class="cls-59" d="M.7,74.14c9.82-2.54,21.95-5.31,34.65-4.61,8.17.46,15.46,1.79,21.64,3.69,3.25,1,6.36,2.44,9.46,3.99,18.49,9.26,33.98,25.54,54.38,32.16,4.47,1.46,9.1,2.44,13.78,2.88,6.66.62,13.26.16,19.68-1.05,20.15-3.82,37.05-15.63,54.93-23.44,12.98-5.67,25.73-8.42,39.59-7.28,16.92,1.39,32.6,9.08,46.7,16.82,10.4,5.69,20.44,11.7,31.61,15.88,20.97,7.85,48.94,11.61,72.65-1.48,8.19-4.53,13.51-11.04,19.62-16.66,6.93-6.38,12.29-9.06,17.82-11.35,5.06-2.1,8.11-3.01,12.28-3.51"/>
    <path class="cls-1" d="M.69,73.36c9.73-2.53,21.95-5.32,34.78-4.48,8.26.55,15.55,2,21.65,3.96,3.25,1.04,6.34,2.53,9.43,4.13,18.4,9.54,33.72,26.08,54.18,32.81,4.47,1.48,9.11,2.47,13.79,2.93,6.67.64,13.27.18,19.7-1.06,20.19-3.87,36.91-15.96,54.67-24.03,12.87-5.85,25.56-8.81,39.49-7.72,16.95,1.33,32.61,9.22,46.56,17.18,10.29,5.85,20.2,12.04,31.33,16.36,20.78,8.06,49.15,12.11,72.68-.92,8.4-4.69,13.68-11.58,19.84-17.48,7.12-6.81,12.54-9.59,18.12-11.95,5.26-2.23,8.32-3.17,12.6-3.68"/>
    <path class="cls-31" d="M.69,72.57c9.64-2.52,21.95-5.33,34.91-4.34,8.34.64,15.65,2.21,21.66,4.23,3.24,1.09,6.32,2.63,9.39,4.28,18.3,9.82,33.45,26.61,53.97,33.47,4.47,1.5,9.11,2.51,13.8,2.97,6.67.65,13.29.19,19.73-1.06,20.22-3.93,36.78-16.28,54.41-24.61,12.76-6.03,25.39-9.2,39.39-8.16,16.98,1.26,32.62,9.37,46.42,17.54,10.19,6.01,19.96,12.39,31.05,16.84,20.59,8.27,49.39,12.68,72.71-.35,8.62-4.82,13.84-12.12,20.07-18.29,7.31-7.25,12.78-10.12,18.41-12.56s8.53-3.33,12.91-3.84"/>
    <path class="cls-60" d="M.68,71.78c9.55-2.51,21.94-5.34,35.04-4.21,8.43.74,15.74,2.42,21.67,4.49,3.24,1.13,6.3,2.72,9.35,4.42,18.21,10.1,33.18,27.14,53.77,34.12,4.47,1.52,9.11,2.54,13.81,3.02,6.68.66,13.31.2,19.75-1.06,20.26-3.98,36.64-16.6,54.15-25.19,12.65-6.21,25.22-9.59,39.29-8.6,17.02,1.2,32.63,9.52,46.27,17.91,10.08,6.17,19.73,12.73,30.78,17.32,20.4,8.48,49.61,13.21,72.74.21,8.83-4.96,14.01-12.65,20.29-19.11,7.49-7.69,13.03-10.65,18.71-13.17s8.74-3.49,13.22-4.01"/>
    <path class="cls-9" d="M.67,70.99c9.46-2.5,21.94-5.35,35.16-4.07,8.52.83,15.84,2.64,21.67,4.76,3.23,1.18,6.28,2.82,9.31,4.56,18.11,10.38,32.92,27.68,53.56,34.77,4.47,1.54,9.12,2.58,13.82,3.06,6.68.67,13.33.21,19.77-1.07,20.3-4.03,36.5-16.92,53.89-25.78,12.54-6.39,25.05-9.98,39.19-9.04,17.05,1.13,32.64,9.67,46.13,18.27,9.97,6.33,19.49,13.07,30.5,17.8,20.21,8.69,49.83,13.73,72.76.78,9.04-5.11,14.17-13.19,20.51-19.92,7.67-8.13,13.28-11.18,19-13.78s8.96-3.65,13.54-4.18"/>
    <path class="cls-38" d="M.67,70.2c9.37-2.49,21.93-5.36,35.29-3.94,8.61.92,15.93,2.85,21.68,5.02,3.22,1.22,6.26,2.92,9.28,4.7,18.02,10.66,32.65,28.21,53.36,35.43,4.47,1.56,9.12,2.61,13.83,3.11,6.69.69,13.34.23,19.8-1.07,20.34-4.08,36.37-17.24,53.63-26.36,12.43-6.57,24.88-10.37,39.09-9.48,17.08,1.07,32.65,9.81,45.99,18.64,9.87,6.49,19.26,13.41,30.22,18.28,20.02,8.89,50.05,14.25,72.79,1.34,9.25-5.25,14.33-13.74,20.73-20.74,7.85-8.58,13.52-11.71,19.3-14.38,6.06-2.81,9.17-3.81,13.85-4.35"/>
    <path class="cls-53" d="M.66,69.41c9.28-2.47,21.93-5.37,35.42-3.81,8.69,1.02,16.03,3.07,21.69,5.29,3.22,1.27,6.23,3.01,9.24,4.85,17.92,10.95,32.39,28.75,53.16,36.08,4.47,1.59,9.12,2.65,13.83,3.15,6.69.7,13.36.24,19.82-1.07,20.37-4.13,36.23-17.56,53.37-26.94,12.32-6.75,24.71-10.76,38.99-9.92,17.11,1,32.66,9.96,45.85,19,9.76,6.65,19.02,13.75,29.94,18.76,19.83,9.09,50.26,14.77,72.82,1.9,9.46-5.4,14.49-14.28,20.96-21.55,8.02-9.02,13.77-12.24,19.59-14.99,6.25-2.95,9.38-3.97,14.16-4.52"/>
    <path class="cls-35" d="M.65,68.63c9.19-2.46,21.93-5.38,35.55-3.67,8.78,1.11,16.12,3.28,21.7,5.56,3.21,1.31,6.21,3.11,9.2,4.99,17.83,11.23,32.12,29.28,52.95,36.74,4.47,1.61,9.13,2.68,13.84,3.2,6.7.71,13.38.25,19.84-1.07,20.41-4.18,36.1-17.87,53.11-27.53,12.21-6.93,24.54-11.15,38.89-10.36,17.14.94,32.67,10.11,45.7,19.36,9.66,6.81,18.79,14.09,29.67,19.24,19.64,9.3,50.48,15.28,72.84,2.47,9.68-5.54,14.64-14.82,21.18-22.37,8.19-9.47,14.01-12.78,19.89-15.6,6.45-3.1,9.59-4.13,14.48-4.69"/>
    <path class="cls-27" d="M.65,67.84c9.1-2.45,21.92-5.39,35.68-3.54,8.87,1.2,16.21,3.5,21.7,5.82,3.21,1.36,6.19,3.2,9.16,5.13,17.73,11.51,31.85,29.82,52.75,37.39,4.47,1.63,9.13,2.72,13.85,3.24,6.7.73,13.39.26,19.87-1.08,20.45-4.23,35.95-18.22,52.85-28.11,12.09-7.13,24.37-11.54,38.79-10.81,17.18.87,32.68,10.26,45.56,19.73,9.55,6.97,18.55,14.43,29.39,19.72,19.46,9.5,50.69,15.8,72.87,3.03,9.89-5.69,14.8-15.36,21.4-23.18,8.37-9.91,14.26-13.31,20.18-16.21,6.65-3.25,9.8-4.29,14.79-4.86"/>
    <path class="cls-19" d="M.64,67.05c9.01-2.44,21.92-5.4,35.81-3.4,8.96,1.3,16.31,3.72,21.71,6.09,3.2,1.4,6.17,3.3,9.12,5.27,17.64,11.79,31.59,30.35,52.54,38.05,4.47,1.65,9.13,2.76,13.86,3.29,6.71.74,13.41.28,19.89-1.08,20.49-4.28,35.81-18.53,52.59-28.69,11.98-7.3,24.19-11.93,38.7-11.25,17.21.81,32.67,10.43,45.42,20.09,9.43,7.15,18.32,14.77,29.11,20.2,19.27,9.7,50.9,16.31,72.9,3.59,10.1-5.84,14.95-15.9,21.62-24,8.54-10.36,14.5-13.85,20.48-16.81,6.84-3.4,10.02-4.45,15.11-5.02"/>
    <path class="cls-47" d="M.63,66.26c8.92-2.43,21.92-5.41,35.94-3.27,9.05,1.39,16.4,3.94,21.72,6.36,3.2,1.45,6.15,3.39,9.09,5.42,17.54,12.07,31.32,30.88,52.34,38.7,4.47,1.67,9.14,2.79,13.87,3.33,6.71.75,13.43.29,19.92-1.08,20.52-4.33,35.68-18.84,52.33-29.28,11.87-7.47,24.02-12.32,38.6-11.69,17.24.74,32.68,10.58,45.28,20.46,9.32,7.31,18.08,15.11,28.83,20.68,19.08,9.9,51.11,16.82,72.93,4.16,10.31-5.98,15.11-16.45,21.85-24.81,8.7-10.81,14.74-14.38,20.77-17.42,7.03-3.55,10.23-4.61,15.42-5.19"/>
    <path class="cls-49" d="M.63,65.47c8.84-2.42,21.91-5.42,36.07-3.13,9.13,1.48,16.49,4.16,21.73,6.62,3.19,1.5,6.13,3.49,9.05,5.56,17.45,12.36,31.06,31.42,52.14,39.36,4.46,1.69,9.14,2.83,13.88,3.37,6.72.76,13.45.3,19.94-1.08,20.56-4.38,35.55-19.16,52.07-29.86,11.77-7.65,23.85-12.7,38.5-12.13,17.27.68,32.69,10.73,45.13,20.82,9.21,7.47,17.85,15.44,28.55,21.16,18.9,10.1,51.32,17.33,72.95,4.72,10.52-6.13,15.26-16.99,22.07-25.63,8.87-11.26,14.99-14.92,21.07-18.03,7.23-3.7,10.44-4.78,15.73-5.36"/>
    <path class="cls-44" d="M.62,64.69c8.75-2.41,21.91-5.43,36.2-3,9.22,1.57,16.58,4.38,21.73,6.89,3.18,1.55,6.11,3.59,9.01,5.7,17.35,12.64,30.79,31.95,51.93,40.01,4.46,1.71,9.14,2.86,13.89,3.42,6.72.78,13.46.31,19.96-1.09,20.6-4.44,35.42-19.47,51.81-30.44,11.66-7.82,23.68-13.09,38.4-12.57,17.3.62,32.7,10.88,44.99,21.18,9.11,7.63,17.62,15.78,28.28,21.64,18.71,10.29,51.53,17.84,72.98,5.29,10.73-6.28,15.41-17.53,22.29-26.44,9.04-11.71,15.23-15.46,21.36-18.64,7.42-3.85,10.65-4.94,16.05-5.53"/>
    <path class="cls-51" d="M.61,63.9c8.66-2.4,21.9-5.44,36.33-2.86,9.31,1.67,16.67,4.61,21.74,7.16,3.18,1.6,6.09,3.68,8.97,5.84,17.26,12.92,30.53,32.49,51.73,40.67,4.46,1.73,9.15,2.9,13.9,3.46,6.73.79,13.48.32,19.99-1.09,20.64-4.49,35.28-19.78,51.55-31.03,11.55-8,23.51-13.48,38.3-13.01,17.33.55,32.7,11.03,44.85,21.55,9,7.79,17.38,16.11,28,22.12,18.53,10.49,51.74,18.34,73.01,5.85,10.94-6.43,15.56-18.08,22.51-27.26,9.2-12.16,15.47-15.99,21.65-19.24,7.61-4,10.87-5.1,16.36-5.7"/>
    <path class="cls-28" d="M.61,63.11c8.57-2.38,21.9-5.44,36.46-2.73,9.4,1.76,16.76,4.83,21.75,7.42,3.17,1.65,6.07,3.78,8.94,5.99,17.17,13.21,30.26,33.02,51.52,41.32,4.46,1.75,9.15,2.93,13.91,3.51,6.73.8,13.5.34,20.01-1.09,20.67-4.54,35.15-20.09,51.29-31.61,11.44-8.17,23.34-13.87,38.2-13.45,17.37.49,32.71,11.18,44.71,21.91,8.89,7.96,17.15,16.45,27.72,22.6,18.35,10.68,51.95,18.85,73.03,6.41,11.15-6.58,15.71-18.62,22.73-28.07,9.36-12.61,15.71-16.53,21.95-19.85,7.81-4.15,11.08-5.26,16.67-5.87"/>
    <path class="cls-41" d="M.6,62.32c8.48-2.37,21.9-5.45,36.58-2.6,9.49,1.85,16.85,5.05,21.76,7.69,3.16,1.7,6.04,3.87,8.9,6.13,17.07,13.49,29.99,33.55,51.32,41.98,4.46,1.77,9.15,2.97,13.92,3.55,6.74.82,13.51.35,20.04-1.1,20.71-4.59,35.02-20.4,51.03-32.19,11.34-8.35,23.17-14.26,38.1-13.89,17.4.43,32.72,11.33,44.56,22.27,8.78,8.12,16.92,16.78,27.44,23.08,18.17,10.88,52.16,19.36,73.06,6.98,11.36-6.73,15.86-19.16,22.96-28.89,9.52-13.06,15.95-17.07,22.24-20.46,8-4.31,11.29-5.42,16.99-6.03"/>
    <path class="cls-66" d="M.59,61.53c8.39-2.36,21.89-5.46,36.71-2.46,9.57,1.95,16.94,5.28,21.76,7.96,3.15,1.75,6.02,3.97,8.86,6.27,16.98,13.77,29.73,34.09,51.12,42.63,4.46,1.8,9.16,3.01,13.93,3.6,6.74.83,13.53.36,20.06-1.1,20.75-4.64,34.89-20.71,50.77-32.78,11.23-8.52,23-14.65,38-14.33,17.43.36,32.73,11.48,44.42,22.64,8.68,8.28,16.69,17.12,27.16,23.56,17.99,11.07,52.37,19.86,73.09,7.54,11.57-6.88,16.01-19.71,23.18-29.7,9.68-13.51,16.2-17.61,22.54-21.06,8.19-4.46,11.5-5.58,17.3-6.2"/>
    <path class="cls-83" d="M.59,60.75c8.3-2.35,21.89-5.47,36.84-2.33,9.66,2.04,17.03,5.51,21.77,8.22,3.14,1.8,6,4.06,8.82,6.41,16.88,14.06,29.46,34.62,50.91,43.29,4.46,1.82,9.16,3.04,13.93,3.64,6.74.84,13.55.37,20.08-1.1,20.79-4.69,34.76-21.02,50.51-33.36,11.12-8.69,22.83-15.03,37.9-14.78,17.46.3,32.73,11.63,44.28,23,8.57,8.44,16.46,17.45,26.89,24.04,17.81,11.26,52.57,20.36,73.12,8.1,11.78-7.03,16.16-20.25,23.4-30.52,9.84-13.96,16.44-18.14,22.83-21.67,8.38-4.62,11.72-5.74,17.62-6.37"/>
    <path class="cls-74" d="M.58,59.96c8.21-2.34,21.88-5.48,36.97-2.19,9.75,2.13,17.12,5.73,21.78,8.49,3.14,1.85,5.98,4.16,8.79,6.56,16.79,14.34,29.2,35.16,50.71,43.94,4.46,1.84,9.16,3.08,13.94,3.69,6.75.86,13.57.39,20.11-1.1,20.82-4.74,34.62-21.34,50.25-33.95,11.02-8.87,22.66-15.42,37.8-15.22,17.49.24,32.74,11.78,44.14,23.37,8.46,8.6,16.24,17.77,26.61,24.52,17.65,11.43,52.78,20.86,73.14,8.67,11.99-7.18,16.31-20.8,23.62-31.33,10-14.41,16.68-18.68,23.13-22.28,8.57-4.78,11.93-5.9,17.93-6.54"/>
    <path class="cls-32" d="M.57,59.17c8.12-2.33,21.88-5.49,37.1-2.06,9.84,2.22,17.21,5.96,21.79,8.75,3.13,1.91,5.97,4.25,8.75,6.7,16.72,14.59,28.93,35.69,50.51,44.6,4.46,1.86,9.17,3.11,13.95,3.73,6.75.87,13.58.4,20.13-1.11,20.86-4.8,34.49-21.65,49.99-34.53,10.91-9.04,22.48-15.81,37.7-15.66,17.52.18,32.75,11.93,43.99,23.73,8.35,8.77,16.01,18.11,26.33,25,17.46,11.63,52.98,21.36,73.17,9.23,12.2-7.33,16.45-21.34,23.85-32.15,10.16-14.86,16.92-19.22,23.42-22.89,8.76-4.93,12.14-6.06,18.24-6.71"/>
    <path class="cls-29" d="M.57,58.38c8.03-2.32,21.88-5.5,37.23-1.92,9.92,2.32,17.29,6.19,21.79,9.02,3.12,1.96,5.94,4.35,8.71,6.84,16.63,14.88,28.66,36.22,50.3,45.25,4.46,1.88,9.17,3.15,13.96,3.78,6.76.88,13.6.41,20.15-1.11,20.9-4.85,34.36-21.96,49.73-35.11,10.8-9.22,22.32-16.48,37.6-16.1,17.55.44,32.76,12.08,43.85,24.09,8.24,8.93,15.77,18.45,26.05,25.48,17.27,11.84,53.19,21.86,73.2,9.8,12.41-7.48,16.6-21.88,24.07-32.96,10.32-15.31,17.16-19.76,23.72-23.49,8.95-5.09,12.35-6.22,18.56-6.88"/>
    <path class="cls-75" d="M.56,57.59c7.94-2.31,21.87-5.51,37.36-1.79,10.01,2.41,17.38,6.42,21.8,9.29,3.11,2.01,5.92,4.44,8.67,6.98,16.53,15.17,28.42,36.71,50.1,45.9,4.46,1.89,9.17,3.18,13.97,3.82,6.76.89,13.62.42,20.18-1.11,20.93-4.9,34.23-22.27,49.47-35.7,10.69-9.39,22.15-16.87,37.5-16.54,17.58.38,32.76,12.22,43.71,24.46,8.13,9.09,15.54,18.79,25.77,25.96,17.08,12.05,53.39,22.36,73.22,10.36,12.61-7.63,16.75-22.43,24.29-33.78,10.47-15.76,17.4-20.3,24.01-24.1,9.13-5.25,12.57-6.38,18.87-7.05"/>
    <path class="cls-68" d="M.55,56.8c7.85-2.29,21.87-5.52,37.49-1.66,10.1,2.5,17.46,6.65,21.81,9.55,3.09,2.07,5.9,4.54,8.64,7.13,16.43,15.46,28.15,37.24,49.89,46.56,4.46,1.91,9.18,3.22,13.98,3.87,6.77.91,13.63.44,20.2-1.12,20.97-4.95,34.09-22.58,49.21-36.28,10.59-9.56,21.97-17.26,37.41-16.98,17.61.32,32.77,12.37,43.57,24.82,8.02,9.25,15.32,19.1,25.5,26.44,16.93,12.21,53.6,22.86,73.25,10.92,12.82-7.79,16.89-22.97,24.51-34.59,10.63-16.21,17.64-20.84,24.31-24.71,9.32-5.41,12.78-6.54,19.19-7.21"/>
    <path class="cls-30" d="M.55,56.02c7.76-2.28,21.86-5.53,37.62-1.52,10.19,2.6,17.55,6.88,21.82,9.82,3.08,2.12,5.88,4.64,8.6,7.27,16.34,15.74,27.89,37.77,49.69,47.21,4.46,1.93,9.18,3.25,13.99,3.91,6.77.92,13.65.45,20.23-1.12,21.01-5,33.96-22.89,48.95-36.86,10.48-9.74,21.8-17.65,37.31-17.42,17.65.26,32.78,12.52,43.42,25.19,7.92,9.41,15.1,19.43,25.22,26.92,16.76,12.39,53.8,23.36,73.28,11.49,13.03-7.94,17.04-23.51,24.73-35.41,10.78-16.67,17.88-21.38,24.6-25.32,9.51-5.57,12.99-6.71,19.5-7.38"/>
    <path class="cls-57" d="M.54,55.23c7.67-2.27,21.86-5.54,37.75-1.39,10.28,2.69,17.63,7.11,21.82,10.09,3.07,2.18,5.86,4.73,8.56,7.41,16.24,16.03,27.63,38.3,49.49,47.87,4.46,1.95,9.18,3.29,14,3.96,6.78.93,13.67.46,20.25-1.12,21.04-5.05,33.83-23.2,48.69-37.45,10.37-9.91,21.63-18.04,37.21-17.86,17.68.2,32.78,12.67,43.28,25.55,7.81,9.57,14.87,19.76,24.94,27.4,16.59,12.58,54,23.85,73.31,12.05,13.24-8.09,17.18-24.06,24.96-36.23,10.94-17.12,18.12-21.92,24.9-25.92,9.7-5.73,13.2-6.87,19.81-7.55"/>
    <path class="cls-10" d="M.53,54.44c7.58-2.26,21.86-5.55,37.87-1.25,10.36,2.78,17.72,7.34,21.83,10.35,3.06,2.24,5.84,4.83,8.52,7.55,16.14,16.32,27.36,38.83,49.28,48.52,4.46,1.97,9.19,3.33,14.01,4,6.78.95,13.68.47,20.27-1.12,21.08-5.11,33.7-23.52,48.43-38.03,10.26-10.09,21.46-18.13,37.11-18.3,17.71-.2,32.79,12.82,43.14,25.91,7.7,9.74,14.65,20.09,24.66,27.88,16.42,12.77,54.21,24.35,73.33,12.62,13.44-8.25,17.33-24.6,25.18-37.04,11.09-17.57,18.36-22.46,25.19-26.53,9.88-5.89,13.41-7.03,20.13-7.72"/>
    <path class="cls-33" d="M.53,53.65c7.49-2.25,21.85-5.56,38-1.12,10.45,2.88,17.8,7.57,21.84,10.62,3.04,2.29,5.82,4.93,8.49,7.7,16.05,16.61,27.1,39.36,49.08,49.18,4.46,1.99,9.19,3.36,14.02,4.05,6.79.96,13.7.48,20.3-1.13,21.12-5.16,33.57-23.83,48.17-38.61,10.16-10.26,21.29-18.52,37.01-18.75,17.74-.26,32.79,12.97,43,26.28,7.59,9.9,14.43,20.42,24.39,28.36,16.25,12.95,54.41,24.85,73.36,13.18,13.65-8.4,17.47-25.14,25.4-37.86,11.24-18.02,18.59-23,25.49-27.14,10.07-6.05,13.63-7.19,20.44-7.89"/>
    <path class="cls-69" d="M.52,52.86c7.4-2.24,21.85-5.57,38.13-.98,10.54,2.97,17.88,7.8,21.85,10.89,3.03,2.35,5.79,5.02,8.45,7.84,15.95,16.89,26.84,39.89,48.87,49.83,4.46,2.01,9.19,3.4,14.03,4.09,6.79.97,13.72.5,20.32-1.13,21.16-5.21,33.43-24.14,47.91-39.2,10.05-10.43,21.12-18.9,36.91-19.19,17.77-.32,32.8,13.12,42.85,26.64,7.48,10.06,14.2,20.75,24.11,28.84,16.08,13.14,54.61,25.34,73.39,13.74,13.86-8.56,17.62-25.68,25.62-38.67,11.39-18.47,18.83-23.54,25.78-27.75,10.25-6.21,13.84-7.35,20.75-8.06"/>
    <path class="cls-62" d="M.51,52.08c7.31-2.23,21.84-5.58,38.26-.85,10.63,3.06,17.96,8.04,21.85,11.15,3.01,2.41,5.77,5.12,8.41,7.98,15.85,17.18,26.57,40.42,48.67,50.49,4.46,2.03,9.2,3.43,14.03,4.13,6.8.98,13.74.51,20.35-1.13,21.19-5.26,33.3-24.45,47.65-39.78,9.94-10.61,20.94-19.29,36.81-19.63,17.81-.38,32.81,13.27,42.71,27.01,7.37,10.22,13.98,21.07,23.83,29.32,15.91,13.32,54.81,25.83,73.41,14.31,14.06-8.71,17.76-26.23,25.85-39.49,11.54-18.93,19.07-24.08,26.08-28.35,10.44-6.37,14.05-7.51,21.07-8.22"/>
    <path class="cls-64" d="M.51,51.29c7.22-2.21,21.84-5.59,38.39-.71,10.72,3.15,18.04,8.27,21.86,11.42,3,2.47,5.75,5.22,8.37,8.12,15.76,17.47,26.31,40.94,48.47,51.14,4.46,2.05,9.2,3.47,14.04,4.18,6.8,1,13.75.52,20.37-1.13,21.23-5.31,33.17-24.76,47.39-40.36,9.84-10.78,20.77-19.68,36.71-20.07,17.84-.44,32.81,13.42,42.57,27.37,7.26,10.38,13.76,21.4,23.55,29.8,15.75,13.51,55.01,26.33,73.44,14.87,14.27-8.87,17.89-26.78,26.07-40.3,11.67-19.39,19.3-24.63,26.37-28.96,10.61-6.55,14.26-7.67,21.38-8.39"/>
    <path class="cls-67" d="M.5,50.5c7.13-2.2,21.84-5.59,38.52-.58,10.8,3.25,18.12,8.5,21.87,11.68,20.89,17.73,30.64,48.13,56.6,60.06,10.69,5.02,23.16,6.15,34.45,3.09,36.1-8.43,44.55-59.98,83.74-61.46,17.87-.33,32.92,13.5,42.43,27.73,7.22,10.49,13.43,21.86,23.27,30.28,15.39,13.91,55.1,26.64,73.47,15.43,14.38-9.17,18.05-27.31,26.29-41.12,11.84-19.83,19.55-25.16,26.67-29.57,10.81-6.7,14.48-7.83,21.7-8.56"/>
    <path class="cls-52" d="M.5,49.43c7.34-2.13,22.14-5.37,38.78-.25,7.01,2.16,12.55,5.2,16.63,7.98,2.15,1.46,3.88,2.84,5.21,4.02,5.91,5.24,10.99,11.49,15.8,18.27,11.51,16.22,21.97,33.51,39.82,42.96,4.21,2.23,8.73,4.07,13.59,4.85,7.91,1.28,15.64-.1,22.83-2.34,34.97-10.88,43.68-60.98,82.42-62.83,12.05-.56,22.99,5.82,31.59,14.28,4.36,4.3,8.16,9.18,11.39,14.06,7.17,10.82,13.53,22.29,23.08,31.21,2.27,2.12,4.98,4.28,8.1,6.3,4.16,2.73,9.01,5.31,14.24,7.5,10.85,4.58,23.5,7.35,34.32,6.9,6.7-.3,12.66-1.82,17.19-4.75,14.35-9.29,18.01-27.79,26.26-41.89,11.66-19.9,19.31-25.64,26.39-30.33,10.59-7.01,14.28-8.36,21.36-9.23"/>
    <path class="cls-56" d="M.5,48.35c7.55-2.05,22.45-5.14,39.04.08,7.01,2.21,12.54,5.33,16.63,8.2,2.11,1.48,3.83,2.87,5.17,4.11,5.74,5.3,10.76,11.58,15.5,18.6,11.17,16.52,21.8,33.53,39.13,43.8,4.34,2.57,9.04,4.88,14.35,5.67,8.64,1.31,16.66-1.01,24.06-3.73,33.97-12.51,42.84-61.68,81.1-64.21,12.23-.81,23.47,5.82,32.1,14.49,4.39,4.43,8.2,9.43,11.44,14.45,7.18,11.1,13.52,22.84,22.9,32.13,2.24,2.21,4.91,4.47,7.96,6.61,4.11,2.89,8.88,5.65,14.11,8.01,10.87,4.9,23.87,7.73,34.87,7.08,6.85-.43,12.81-2.22,17.29-5.23,14.22-9.54,17.97-28.27,26.23-42.66,11.48-19.97,19.08-26.13,26.12-31.09,10.37-7.31,14.09-8.88,21.02-9.89"/>
    <path class="cls-42" d="M.5,47.28c7.75-1.98,22.76-4.91,39.3.41,7,2.26,12.52,5.47,16.64,8.42,2.07,1.49,3.77,2.9,5.14,4.21,5.58,5.36,10.53,11.67,15.21,18.93,10.84,16.8,21.61,33.64,38.44,44.64,4.48,2.93,9.36,5.68,15.11,6.49,9.37,1.35,17.66-1.9,25.29-5.13,32.95-13.95,42-62.38,79.77-65.59,12.42-1.05,23.96,5.82,32.6,14.71,4.41,4.56,8.24,9.69,11.49,14.84,7.2,11.38,13.5,23.41,22.71,33.06,2.21,2.31,4.83,4.66,7.82,6.91,4.05,3.05,8.76,6,13.97,8.51,10.88,5.24,24.24,8.13,35.43,7.26,7-.54,12.95-2.62,17.38-5.71,14.09-9.8,17.93-28.75,26.21-43.43,11.3-20.03,18.84-26.61,25.84-31.85,10.15-7.61,13.89-9.41,20.68-10.56"/>
    <path class="cls-17" d="M.5,46.21c7.96-1.9,23.06-4.69,39.55.73,6.99,2.31,12.51,5.6,16.65,8.65,2.04,1.5,3.72,2.92,5.1,4.3,5.42,5.41,10.3,11.76,14.92,19.25,10.51,17.07,21.39,33.83,37.75,45.47,4.63,3.3,9.68,6.49,15.86,7.32,10.09,1.38,18.63-2.77,26.52-6.53,31.94-15.21,41.17-63.12,78.45-66.97,12.61-1.3,24.44,5.82,33.11,14.93,4.44,4.69,8.28,9.95,11.55,15.23,7.22,11.66,13.49,23.97,22.52,33.98,2.18,2.41,4.75,4.86,7.68,7.22,3.99,3.21,8.63,6.35,13.84,9.02,10.89,5.58,24.61,8.51,35.99,7.45,7.15-.67,13.09-3.02,17.48-6.18,13.97-10.06,17.9-29.23,26.18-44.2,11.12-20.1,18.61-27.08,25.56-32.62,9.93-7.89,13.69-9.94,20.34-11.22"/>
    <path class="cls-72" d="M.5,45.13c8.17-1.83,23.37-4.46,39.81,1.06,6.98,2.36,12.49,5.73,16.65,8.87,2,1.51,3.66,2.94,5.06,4.39,5.27,5.45,10.08,11.84,14.62,19.58,10.19,17.34,21.16,34.08,37.06,46.31,4.78,3.68,9.99,7.3,16.62,8.14,10.82,1.41,19.59-3.63,27.74-7.92,30.95-16.31,40.34-63.88,77.12-68.35,12.8-1.56,24.93,5.83,33.62,15.15,4.46,4.82,8.32,10.2,11.6,15.62,7.23,11.94,13.47,24.53,22.33,34.91,2.15,2.51,4.67,5.06,7.54,7.53,3.93,3.38,8.51,6.7,13.7,9.52,10.9,5.92,24.99,8.9,36.54,7.63,7.3-.8,13.23-3.42,17.58-6.66,13.84-10.32,17.86-29.7,26.15-44.97,10.95-20.16,18.37-27.56,25.29-33.38,9.71-8.17,13.5-10.46,20-11.89"/>
    <path class="cls-22" d="M.5,44.06c8.38-1.75,23.68-4.23,40.07,1.39,6.98,2.41,12.48,5.85,16.66,9.1,1.96,1.52,3.61,2.97,5.02,4.48,5.12,5.48,9.85,11.92,14.33,19.91,9.87,17.61,20.9,34.38,36.37,47.15,4.93,4.06,10.31,8.09,17.37,8.96,11.55,1.42,21.55-3.02,28.97-9.32,32.6-11.6,39.52-64.66,75.8-69.72,13-1.81,25.41,5.83,34.12,15.36,4.49,4.95,8.36,10.46,11.65,16.01,7.25,12.22,13.45,25.1,22.14,35.83,2.12,2.61,4.59,5.26,7.4,7.83,3.87,3.54,8.38,7.05,13.57,10.03,10.91,6.26,25.36,9.28,37.1,7.81,7.45-.93,13.38-3.82,17.68-7.14,13.71-10.58,17.83-30.18,26.12-45.74,10.78-20.22,18.13-28.02,25.01-34.14,9.5-8.45,13.3-10.99,19.66-12.56"/>
    <path class="cls-25" d="M.5,42.99c8.58-1.68,23.99-4,40.33,1.72,6.97,2.47,12.47,5.98,16.67,9.32,1.93,1.53,3.56,2.99,4.99,4.57,4.97,5.51,9.63,12,14.04,20.24,9.56,17.86,20.62,34.73,35.68,47.99,5.07,4.46,10.63,8.89,18.13,9.78,12.28,1.45,22.71-3.69,30.2-10.72,32.02-12.13,38.7-65.48,74.48-71.1,13.2-2.08,25.9,5.83,34.63,15.58,4.52,5.08,8.4,10.72,11.7,16.39,7.27,12.5,13.44,25.67,21.95,36.76,2.08,2.72,4.51,5.46,7.25,8.14,3.81,3.71,8.26,7.41,13.44,10.53,10.92,6.6,25.73,9.66,37.65,7.99,7.6-1.06,13.52-4.22,17.78-7.61,13.59-10.84,17.8-30.65,26.1-46.51,10.61-20.27,17.9-28.49,24.74-34.9,9.29-8.71,13.11-11.52,19.32-13.22"/>
    <path class="cls-45" d="M.5,41.91c8.79-1.6,24.29-3.78,40.59,2.05,6.96,2.52,12.45,6.11,16.67,9.54,1.89,1.54,3.5,3.01,4.95,4.67,4.83,5.53,9.41,12.07,13.74,20.57,9.25,18.12,20.32,35.12,34.99,48.83,5.22,4.87,10.94,9.7,18.88,10.6,13,1.48,23.86-4.35,31.42-12.11,31.44-12.66,37.89-66.31,73.15-72.48,13.4-2.34,26.4,5.81,35.13,15.8,4.55,5.21,8.44,10.97,11.75,16.78,7.28,12.77,13.42,26.24,21.76,37.69,2.05,2.82,4.43,5.66,7.11,8.44,3.75,3.88,8.13,7.76,13.3,11.04,10.93,6.94,26.11,10.04,38.21,8.18,7.75-1.19,13.66-4.62,17.87-8.09,13.46-11.09,17.77-31.12,26.07-47.28,10.44-20.33,17.66-28.95,24.46-35.66,9.08-8.97,12.91-12.04,18.98-13.89"/>
    <path class="cls-43" d="M.5,40.84c9-1.53,24.6-3.55,40.85,2.38,6.95,2.57,12.44,6.23,16.68,9.77,1.86,1.55,3.45,3.03,4.91,4.76,4.69,5.55,9.19,12.15,13.45,20.89,8.95,18.36,19.99,35.53,34.31,49.67,5.35,5.29,11.26,10.5,19.64,11.43,13.73,1.51,25.02-5.01,32.65-13.51,30.86-13.19,37.07-67.17,71.83-73.86,13.61-2.62,26.89,5.82,35.64,16.01,4.58,5.34,8.48,11.23,11.8,17.17,7.3,13.05,13.39,26.81,21.57,38.61,2.02,2.92,4.35,5.87,6.97,8.75,3.68,4.05,8.01,8.11,13.17,11.54,10.94,7.28,26.48,10.41,38.77,8.36,7.9-1.32,13.81-5.02,17.97-8.57,13.33-11.35,17.74-31.59,26.04-48.05,10.28-20.38,17.43-29.4,24.18-36.42,8.87-9.23,12.72-12.57,18.64-14.55"/>
    <path class="cls-81" d="M.5,39.77c9.2-1.45,24.92-3.35,41.11,2.71,6.95,2.6,12.43,6.36,16.68,9.99,1.83,1.56,3.4,3.05,4.88,4.85,4.56,5.56,8.97,12.22,13.16,21.22,8.66,18.61,19.65,35.97,33.62,50.5,5.49,5.71,11.58,11.31,20.39,12.25,14.46,1.54,26.17-5.68,33.88-14.9,30.27-13.72,36.25-68.05,70.5-75.23,13.81-2.9,27.37,5.82,36.15,16.23,4.61,5.47,8.52,11.49,11.85,17.56,7.32,13.33,13.37,27.38,21.38,39.54,1.99,3.02,4.27,6.07,6.83,9.05,3.62,4.22,7.88,8.46,13.03,12.05,10.95,7.63,26.85,10.79,39.32,8.54,8.05-1.45,13.95-5.42,18.07-9.05,13.2-11.61,17.71-32.06,26.01-48.82,10.12-20.43,17.2-29.85,23.91-37.19,8.67-9.47,12.52-13.09,18.3-15.22"/>
    <path class="cls-13" d="M.5,38.7c9.41-1.38,25.23-3.13,41.36,3.04,6.94,2.65,12.41,6.48,16.69,10.21,1.79,1.57,3.35,3.07,4.84,4.94,4.43,5.57,8.76,12.29,12.87,21.55,8.37,18.85,19.29,36.43,32.93,51.34,5.62,6.14,11.89,12.11,21.15,13.07,15.18,1.57,27.33-6.34,35.1-16.3,29.69-14.25,35.44-68.96,69.18-76.61,14.02-3.18,27.86,5.82,36.65,16.45,4.63,5.6,8.56,11.75,11.9,17.95,7.33,13.61,13.35,27.95,21.19,40.46,1.96,3.12,4.19,6.27,6.69,9.36,3.56,4.39,7.76,8.82,12.9,12.56,10.96,7.97,27.23,11.17,39.88,8.73,8.19-1.58,14.09-5.82,18.17-9.52,13.08-11.87,17.69-32.53,25.98-49.59,9.96-20.48,16.97-30.3,23.63-37.95,8.47-9.72,12.33-13.62,17.96-15.89"/>
    <path class="cls-55" d="M.5,37.62c9.62-1.3,25.53-2.9,41.62,3.36,6.94,2.7,12.4,6.6,16.7,10.44,1.76,1.57,3.29,3.08,4.8,5.03,4.31,5.57,8.54,12.36,12.57,21.88,8.08,19.09,18.92,36.91,32.24,52.18,5.74,6.58,12.21,12.92,21.91,13.89,15.91,1.6,28.49-7,36.33-17.7,29.11-14.78,34.62-69.88,67.86-77.99,14.22-3.47,28.34,5.82,37.16,16.67,4.66,5.73,8.6,12,11.95,18.34,7.35,13.89,13.32,28.52,21,41.39,1.92,3.22,4.11,6.48,6.55,9.66,3.49,4.56,7.63,9.17,12.77,13.06,10.97,8.32,27.6,11.55,40.43,8.91,8.34-1.71,14.23-6.22,18.27-10,12.95-12.13,17.66-32.99,25.96-50.36,9.81-20.53,16.74-30.75,23.35-38.71,8.27-9.96,12.13-14.15,17.63-16.55"/>
    <path class="cls-15" d="M.5,36.55c9.82-1.23,25.84-2.68,41.88,3.69,6.93,2.75,12.39,6.72,16.7,10.66,1.73,1.58,3.24,3.1,4.76,5.13,4.19,5.58,8.33,12.43,12.28,22.21,7.8,19.32,18.52,37.4,31.55,53.02,5.85,7.02,12.53,13.72,22.66,14.71,16.64,1.63,29.64-7.66,37.56-19.09,28.53-15.31,33.8-70.83,66.53-79.37,14.43-3.76,28.83,5.82,37.67,16.88,4.68,5.86,8.64,12.26,12,18.73,7.37,14.17,13.3,29.09,20.81,42.31,1.89,3.32,4.02,6.68,6.41,9.97,3.43,4.73,7.51,9.53,12.63,13.57,10.98,8.66,27.97,11.92,40.99,9.09,8.49-1.85,14.37-6.62,18.36-10.48,12.82-12.39,17.64-33.46,25.93-51.13,9.65-20.58,16.52-31.19,23.08-39.47,8.08-10.19,11.94-14.67,17.29-17.22"/>
    <path class="cls-18" d="M.5,35.48c10.03-1.16,26.15-2.45,42.14,4.02,6.92,2.8,12.38,6.84,16.71,10.89,1.69,1.58,3.19,3.11,4.73,5.22,4.07,5.58,8.12,12.5,11.99,22.53,7.52,19.55,18.12,37.9,30.86,53.86,5.96,7.47,12.84,14.52,23.42,15.53,17.36,1.66,30.8-8.33,38.79-20.49,27.94-15.83,32.98-71.79,65.21-80.74,14.64-4.07,29.31,5.83,38.17,17.1,4.71,5.99,8.68,12.52,12.06,19.12,7.39,14.45,13.27,29.67,20.63,43.24,1.86,3.43,3.94,6.88,6.27,10.27,3.36,4.9,7.38,9.88,12.5,14.07,10.99,9.01,28.34,12.3,41.55,9.27,8.64-1.98,14.52-7.02,18.46-10.95,12.69-12.65,17.62-33.93,25.9-51.9,9.5-20.62,16.29-31.63,22.8-40.23,7.89-10.43,11.74-15.2,16.95-17.88"/>
    <path class="cls-20" d="M.5,34.4c10.24-1.08,26.46-2.22,42.4,4.35,6.92,2.85,12.37,6.96,16.72,11.11,1.66,1.59,3.14,3.13,4.69,5.31,3.95,5.57,7.92,12.56,11.69,22.86,7.25,19.78,17.7,38.41,30.17,54.7,6.06,7.92,13.16,15.33,24.17,16.36,18.09,1.69,31.95-8.99,40.01-21.88,27.36-16.36,32.15-72.77,63.88-82.12,14.84-4.37,29.78,5.85,38.68,17.32,4.72,6.13,8.72,12.77,12.11,19.5,7.4,14.73,13.24,30.24,20.44,44.17,1.82,3.53,3.86,7.09,6.12,10.58,3.29,5.07,7.26,10.24,12.36,14.58,11,9.36,28.72,12.67,42.1,9.46,8.79-2.11,14.66-7.42,18.56-11.43,12.56-12.91,17.6-34.39,25.87-52.67,9.35-20.67,16.08-32.07,22.53-41,7.7-10.66,11.55-15.73,16.61-18.55"/>
    <path class="cls-63" d="M.5,33.33c10.44-1.01,26.77-2,42.66,4.68,6.91,2.9,12.36,7.08,16.72,11.33,1.63,1.59,3.1,3.14,4.65,5.4,3.84,5.57,7.71,12.63,11.4,23.19,6.99,20.01,17.27,38.92,29.48,55.53,6.16,8.37,13.48,16.13,24.93,17.18,18.82,1.72,33.11-9.65,41.24-23.28,26.78-16.89,31.33-73.77,62.56-83.5,15.04-4.69,30.26,5.85,39.18,17.54,4.75,6.26,8.76,13.03,12.16,19.89,7.42,15,13.21,30.81,20.25,45.09,1.79,3.63,3.77,7.29,5.98,10.89,3.23,5.24,7.13,10.59,12.23,15.08,11.01,9.7,29.09,13.05,42.66,9.64,8.94-2.24,14.8-7.82,18.66-11.91,12.43-13.17,17.58-34.85,25.84-53.44,9.21-20.71,15.86-32.51,22.25-41.76,7.52-10.88,11.35-16.25,16.27-19.21"/>
    <path class="cls-8" d="M.5,32.26c10.65-.93,27.07-1.77,42.92,5.01,6.9,2.95,12.35,7.19,16.73,11.56,1.6,1.59,3.05,3.15,4.62,5.49,3.73,5.56,7.51,12.69,11.11,23.52,6.72,20.24,16.83,39.45,28.79,56.37,6.24,8.83,13.79,16.94,25.68,18,19.54,1.75,34.26-10.31,42.47-24.68,26.2-17.42,30.49-74.78,61.23-84.88,15.25-5.01,30.75,5.85,39.69,17.75,4.77,6.4,8.8,13.29,12.21,20.28,7.44,15.28,13.18,31.39,20.06,46.02,1.76,3.73,3.69,7.5,5.84,11.19,3.16,5.42,7,10.95,12.1,15.59,11.02,10.05,29.46,13.42,43.21,9.82,9.09-2.38,14.94-8.22,18.76-12.39,12.3-13.43,17.57-35.32,25.82-54.21,9.06-20.75,15.65-32.94,21.97-42.52,7.34-11.11,11.15-16.78,15.93-19.88"/>
    <path class="cls-37" d="M.5,31.18c10.86-.86,27.38-1.54,43.17,5.34,6.89,3,12.34,7.31,16.74,11.78,1.57,1.6,3,3.17,4.58,5.59,3.62,5.55,7.31,12.76,10.81,23.84,6.47,20.47,16.38,39.97,28.1,57.21,6.32,9.3,14.11,17.74,26.44,18.82,20.27,1.78,35.42-10.98,43.69-26.07,25.62-17.95,29.66-75.8,59.91-86.26,15.45-5.34,31.23,5.85,40.2,17.97,4.8,6.53,8.84,13.54,12.26,20.67,7.46,15.56,13.15,31.96,19.87,46.94,1.72,3.84,3.6,7.7,5.7,11.5,3.09,5.59,6.88,11.3,11.96,16.1,11.03,10.4,29.83,13.79,43.77,10,9.24-2.51,15.08-8.62,18.85-12.86,12.17-13.69,17.55-35.78,25.79-54.98,8.92-20.79,15.43-33.37,21.7-43.28,7.16-11.33,10.96-17.31,15.59-20.55"/>
    <path class="cls-77" d="M.5,30.11c11.07-.78,27.69-1.32,43.43,5.67,6.89,3.05,12.34,7.42,16.74,12,1.54,1.6,2.96,3.18,4.54,5.68,3.51,5.54,7.11,12.82,10.52,24.17,6.21,20.69,15.92,40.5,27.41,58.05,6.4,9.77,14.43,18.54,27.19,19.64,21,1.81,36.57-11.64,44.92-27.47,25.03-18.48,28.82-76.84,58.59-87.63,15.64-5.67,31.72,5.86,40.7,18.19,4.83,6.66,8.89,13.8,12.31,21.06,7.48,15.84,13.11,32.54,19.68,47.87,1.69,3.94,3.52,7.9,5.56,11.8,3.02,5.76,6.75,11.66,11.83,16.6,11.04,10.75,30.21,14.17,44.33,10.19,9.38-2.65,15.23-9.02,18.95-13.34,12.04-13.96,17.54-36.24,25.76-55.75,8.78-20.84,15.23-33.8,21.42-44.04,6.99-11.56,10.76-17.83,15.25-21.21"/>
    <path class="cls-65" d="M.5,29.04c11.27-.71,27.99-1.09,43.69,5.99,6.88,3.11,12.33,7.54,16.75,12.23,1.51,1.6,2.91,3.19,4.5,5.77,3.41,5.53,6.92,12.88,10.23,24.5,5.96,20.92,15.45,41.02,26.72,58.89,6.46,10.24,14.74,19.35,27.95,20.47,21.73,1.84,37.73-12.3,46.15-28.86,24.45-19.01,27.97-77.89,57.26-89.01,15.84-6.01,32.2,5.86,41.21,18.4,4.85,6.79,8.93,14.06,12.36,21.45,7.49,16.12,13.08,33.11,19.49,48.79,1.65,4.04,3.43,8.11,5.42,12.11,2.95,5.93,6.62,12.01,11.69,17.11,11.05,11.1,30.58,14.54,44.88,10.37,9.53-2.78,15.37-9.42,19.05-13.82,11.91-14.22,17.53-36.7,25.73-56.52,8.64-20.88,15.02-34.23,21.14-44.8,6.82-11.78,10.57-18.36,14.91-21.88"/>
    <path class="cls-82" d="M.5,27.96c11.48-.63,28.3-.86,43.95,6.32,6.87,3.16,12.33,7.65,16.76,12.45,1.48,1.61,2.87,3.2,4.47,5.86,3.31,5.51,6.73,12.95,9.94,24.83,5.71,21.14,14.97,41.55,26.03,59.72,6.52,10.71,15.06,20.15,28.71,21.29,22.45,1.87,38.88-12.96,47.38-30.26,23.87-19.54,27.12-78.95,55.94-90.39,16.03-6.36,32.69,5.86,41.72,18.62,4.88,6.92,8.97,14.31,12.41,21.84,7.51,16.4,13.05,33.68,19.3,49.72,1.62,4.14,3.34,8.31,5.28,12.41,2.88,6.11,6.5,12.37,11.56,17.61,11.05,11.45,30.95,14.91,45.44,10.55,9.68-2.91,15.51-9.82,19.15-14.29,11.78-14.48,17.52-37.16,25.7-57.29,8.5-20.92,14.82-34.66,20.87-45.57,6.65-12,10.37-18.88,14.57-22.54"/>
    <path class="cls-26" d="M.5,26.89c11.69-.56,28.61-.63,44.21,6.65,6.87,3.21,12.33,7.76,16.76,12.68,1.45,1.61,2.83,3.21,4.43,5.95,3.21,5.5,6.53,13.01,9.64,25.16,5.47,21.37,14.48,42.08,25.35,60.56,6.57,11.18,15.38,20.96,29.46,22.11,23.18,1.9,40.04-13.63,48.6-31.66,23.29-20.06,26.26-80.02,54.61-91.77,16.22-6.72,33.17,5.86,42.22,18.84,4.9,7.05,9.01,14.57,12.46,22.23,7.53,16.68,13.01,34.26,19.11,50.65,1.58,4.25,3.26,8.52,5.14,12.72,2.81,6.28,6.37,12.73,11.42,18.12,11.06,11.8,31.32,15.29,45.99,10.74,9.83-3.05,15.65-10.22,19.25-14.77,11.65-14.74,17.51-37.62,25.68-58.06,8.37-20.95,14.62-35.09,20.59-46.33,6.49-12.21,10.18-19.41,14.23-23.21"/>
    <path class="cls-16" d="M.5,25.82c11.89-.48,28.92-.41,44.47,6.98,6.86,3.26,12.32,7.87,16.77,12.9,1.42,1.61,2.79,3.22,4.39,6.04,3.11,5.48,6.34,13.07,9.35,25.48,5.23,21.59,13.99,42.61,24.66,61.4,6.62,11.66,15.69,21.76,30.22,22.93,23.91,1.93,41.19-14.29,49.83-33.05,22.7-20.59,25.4-81.11,53.29-93.14,16.4-7.08,33.66,5.87,42.73,19.06,4.93,7.18,9.05,14.83,12.51,22.61,7.55,16.96,12.97,34.83,18.92,51.57,1.55,4.35,3.17,8.72,4.99,13.02,2.73,6.45,6.24,13.08,11.29,18.62,11.07,12.15,31.69,15.66,46.55,10.92,9.98-3.18,15.79-10.62,19.35-15.25,11.52-15,17.51-38.08,25.65-58.83,8.23-20.99,14.43-35.52,20.32-47.09,6.33-12.43,9.98-19.94,13.89-23.87"/>
    <path class="cls-6" d="M.5,24.74c12.1-.41,29.22-.18,44.73,7.31,6.85,3.31,12.32,7.98,16.77,13.12,1.39,1.61,2.75,3.23,4.36,6.14,3.02,5.47,6.16,13.13,9.06,25.81,4.99,21.81,13.49,43.14,23.97,62.24,6.65,12.14,16.01,22.56,30.97,23.75,24.63,1.96,42.35-14.95,51.06-34.45,22.12-21.12,24.53-82.2,51.97-94.52,16.58-7.45,34.14,5.87,43.24,19.27,4.95,7.31,9.09,15.09,12.57,23,7.57,17.24,12.94,35.41,18.73,52.5,1.51,4.45,3.08,8.93,4.85,13.33,2.66,6.62,6.12,13.44,11.16,19.13,11.07,12.5,32.06,16.03,47.11,11.1,10.13-3.32,15.93-11.02,19.44-15.73,11.38-15.26,17.5-38.54,25.62-59.6,8.1-21.03,14.23-35.94,20.04-47.85,6.17-12.65,9.79-20.46,13.55-24.54"/>
    <path class="cls-5" d="M.5,23.67c12.31-.33,29.53.05,44.98,7.64,6.84,3.36,12.33,8.09,16.78,13.35,1.36,1.61,2.71,3.23,4.32,6.23,2.92,5.45,5.97,13.19,8.76,26.14,4.75,22.04,12.99,43.66,23.28,63.08,6.69,12.62,16.33,23.37,31.73,24.57,25.36,1.99,43.51-15.61,52.28-35.85,21.54-21.65,23.66-83.3,50.64-95.9,16.76-7.83,34.63,5.87,43.74,19.49,4.98,7.45,9.13,15.34,12.62,23.39,7.58,17.51,12.9,35.98,18.54,53.42,1.47,4.55,3,9.13,4.71,13.63,2.59,6.79,5.99,13.8,11.02,19.64,11.08,12.85,32.44,16.4,47.66,11.28,10.27-3.45,16.07-11.42,19.54-16.2,11.25-15.52,17.5-38.99,25.59-60.37,7.97-21.07,14.04-36.37,19.76-48.61,6.01-12.87,9.59-20.99,13.22-25.21"/>
    <path class="cls-58" d="M.5,22.6c12.51-.26,29.84.28,45.24,7.97,6.84,3.41,12.33,8.19,16.79,13.57,1.34,1.61,2.68,3.24,4.28,6.32,2.83,5.44,5.79,13.26,8.47,26.47,4.52,22.26,12.48,44.19,22.59,63.92,6.71,13.1,16.64,24.17,32.48,25.4,26.09,2.01,44.66-16.28,53.51-37.24,20.96-22.18,22.78-84.4,49.32-97.28,16.93-8.21,35.11,5.87,44.25,19.71,5.01,7.58,9.17,15.6,12.67,23.78,7.6,17.79,12.86,36.55,18.35,54.35,1.44,4.66,2.91,9.33,4.57,13.94,2.51,6.97,5.86,14.15,10.89,20.14,11.09,13.2,32.81,16.77,48.22,11.47,10.42-3.59,16.22-11.82,19.64-16.68,11.12-15.78,17.5-39.45,25.56-61.14,7.84-21.11,13.86-36.79,19.49-49.38,5.86-13.09,9.4-21.52,12.88-25.87"/>
    <path class="cls-39" d="M.5,21.52c12.72-.18,30.14.51,45.5,8.3,6.83,3.46,12.33,8.3,16.79,13.79,1.31,1.61,2.64,3.25,4.25,6.41,2.74,5.42,5.61,13.32,8.18,26.8,4.29,22.49,11.97,44.71,21.9,64.75,6.73,13.58,16.96,24.98,33.24,26.22,26.81,2.04,42.26-18.77,54.74-38.64,16.22-25.84,21.89-85.52,47.99-98.66,17.1-8.6,35.6,5.87,44.75,19.92,5.03,7.71,9.21,15.86,12.72,24.17,7.62,18.07,12.82,37.13,18.17,55.27,1.4,4.76,2.82,9.54,4.43,14.24,2.44,7.14,5.73,14.51,10.75,20.65,11.09,13.55,33.18,17.14,48.77,11.65,10.57-3.72,16.36-12.22,19.74-17.16,10.99-16.04,17.51-39.91,25.54-61.91s13.67-37.22,19.21-50.14,9.2-22.04,12.54-26.54"/>
    <path class="cls-76" d="M.5,20.45c12.93-.11,30.45.74,45.76,8.62,6.82,3.51,12.34,8.41,16.8,14.02,1.28,1.61,2.61,3.25,4.21,6.5,2.65,5.4,5.43,13.38,7.88,27.12,4.06,22.71,11.45,45.23,21.21,65.59,6.74,14.07,17.27,25.78,33.99,27.04,27.54,2.07,43.47-19.35,55.97-40.03,15.78-26.13,20.99-86.64,46.67-100.03,17.26-9,36.08,5.88,45.26,20.14,5.06,7.84,9.27,16.11,12.77,24.56,7.67,18.34,12.78,37.7,17.98,56.2,1.36,4.86,2.73,9.74,4.29,14.55,2.37,7.31,5.61,14.87,10.62,21.15,11.1,13.9,33.55,17.52,49.33,11.83,10.72-3.86,16.5-12.62,19.84-17.63,10.86-16.3,17.51-40.36,25.51-62.68,7.59-21.18,13.49-37.64,18.94-50.9,5.56-13.52,9-22.57,12.2-27.2"/>
    <path class="cls-12" d="M.5,19.38c13.13-.03,30.76.97,46.02,8.95,6.81,3.57,12.34,8.51,16.81,14.24,1.26,1.61,2.58,3.26,4.17,6.6,2.57,5.39,5.25,13.44,7.59,27.45,3.83,22.94,10.92,45.75,20.52,66.43,6.75,14.55,17.59,26.59,34.75,27.86,28.27,2.1,44.69-19.92,57.19-41.43,15.35-26.42,20.09-87.76,45.35-101.41,17.41-9.41,36.57,5.88,45.77,20.36,5.08,7.97,9.31,16.36,12.82,24.95,7.69,18.62,12.74,38.27,17.79,57.13,1.33,4.96,2.64,9.95,4.15,14.86,2.29,7.48,5.48,15.23,10.49,21.66,11.1,14.26,33.92,17.89,49.89,12.02,10.86-4,16.64-13.02,19.93-18.11,10.72-16.56,17.52-40.82,25.48-63.45,7.46-21.22,13.31-38.07,18.66-51.66,5.41-13.74,8.81-23.09,11.86-27.87"/>
    <path class="cls-48" d="M.5,18.3c13.34.04,31.06,1.2,46.28,9.28,6.81,3.62,12.35,8.61,16.81,14.47,1.23,1.61,2.55,3.26,4.13,6.69,2.48,5.37,5.07,13.51,7.3,27.78,3.61,23.17,10.39,46.26,19.83,67.27,6.75,15.03,17.91,27.39,35.5,28.68,28.99,2.13,45.94-20.49,58.42-42.83,14.94-26.72,19.18-88.89,44.02-102.79,17.56-9.82,37.05,5.88,46.27,20.58,5.11,8.1,9.35,16.62,12.87,25.34,7.71,18.9,12.7,38.84,17.6,58.05,1.29,5.06,2.55,10.15,4.01,15.16,2.22,7.65,5.35,15.58,10.35,22.16,11.11,14.61,34.29,18.26,50.44,12.2,11.01-4.13,16.78-13.42,20.03-18.59,10.59-16.82,17.52-41.27,25.45-64.22,7.34-21.25,13.13-38.49,18.38-52.42,5.26-13.96,8.61-23.62,11.52-28.54"/>
    <path class="cls-4" d="M.5,17.23c13.55.12,31.35,1.45,46.54,9.61,6.79,3.68,12.36,8.72,16.82,14.69,1.2,1.61,2.52,3.27,4.1,6.78,2.4,5.35,4.9,13.57,7.01,28.11,3.39,23.39,9.86,46.77,19.14,68.11,6.75,15.52,18.22,28.19,36.26,29.51,29.72,2.16,47.2-21.06,59.65-44.22,14.53-27.03,18.27-90.02,42.7-104.17,17.7-10.24,37.54,5.88,46.78,20.79,5.14,8.23,9.39,16.88,12.92,25.72,7.72,19.18,12.66,39.41,17.41,58.98,1.25,5.17,2.47,10.35,3.86,15.47,2.14,7.82,5.22,15.94,10.22,22.67,11.11,14.96,34.66,18.63,51,12.38,11.16-4.27,16.92-13.82,20.13-19.07,10.46-17.08,17.53-41.73,25.42-64.99,7.22-21.29,12.96-38.92,18.11-53.18s8.42-24.15,11.18-29.2"/>
    <path class="cls-40" d="M.5,16.16c13.76.19,31.66,1.68,46.79,9.94,6.78,3.73,12.38,8.82,16.83,14.91,1.18,1.61,2.5,3.27,4.06,6.87,2.32,5.33,4.73,13.63,6.71,28.44,3.17,23.62,9.33,47.28,18.45,68.95,6.74,16,18.54,29,37.02,30.33,30.45,2.19,48.47-21.62,60.87-45.62,14.13-27.35,17.34-91.16,41.37-105.54,17.83-10.67,38.02,5.89,47.29,21.01,5.16,8.36,9.43,17.14,12.97,26.11,7.74,19.46,12.62,39.99,17.22,59.9,1.22,5.27,2.38,10.56,3.72,15.77,2.07,8,5.09,16.3,10.08,23.18,11.11,15.31,35.03,19,51.55,12.56,11.31-4.4,17.06-14.22,20.23-19.54,10.32-17.34,17.55-42.18,25.4-65.76,7.1-21.32,12.78-39.34,17.83-53.95s8.22-24.67,10.84-29.87"/>
    <path class="cls-7" d="M.5,15.09c13.96.27,31.97,1.91,47.05,10.27,6.78,3.78,12.39,8.92,16.83,15.14,1.15,1.61,2.47,3.28,4.02,6.96,2.24,5.32,4.56,13.7,6.42,28.76,2.95,23.85,8.79,47.79,17.76,69.78,6.73,16.49,18.86,29.8,37.77,31.15,31.17,2.22,49.77-22.18,62.1-47.01,13.75-27.67,16.41-92.3,40.05-106.92,17.96-11.11,38.51,5.89,47.79,21.23,5.19,8.49,9.47,17.39,13.02,26.5,7.75,19.74,12.58,40.56,17.03,60.83,1.18,5.37,2.29,10.76,3.58,16.08,1.99,8.17,4.96,16.65,9.95,23.68,11.12,15.67,35.4,19.37,52.11,12.75,11.45-4.54,17.2-14.62,20.33-20.02,10.19-17.6,17.56-42.63,25.37-66.53,6.98-21.36,12.61-39.77,17.55-54.71,4.84-14.62,8.03-25.2,10.5-30.53"/>
    <path class="cls-21" d="M.5,14.01c14.17.34,32.27,2.14,47.31,10.6,6.77,3.83,12.41,9.02,16.84,15.36,1.13,1.61,2.45,3.28,3.99,7.06,2.16,5.3,4.39,13.76,6.13,29.09,2.73,24.08,8.25,48.3,17.07,70.62,6.71,16.98,19.17,30.61,38.53,31.97,31.9,2.25,51.08-22.75,63.33-48.41,13.37-28.01,15.47-93.44,38.73-108.3,18.08-11.55,38.96,5.91,48.3,21.44,5.19,8.64,9.51,17.65,13.07,26.89,7.77,20.02,12.54,41.13,16.84,61.75,1.14,5.47,2.2,10.96,3.44,16.38,1.91,8.34,4.84,17.01,9.82,24.19,11.12,16.02,35.76,19.71,52.67,12.93,11.59-4.7,17.34-15.02,20.42-20.5,10.05-17.86,17.58-43.09,25.34-67.3,6.86-21.39,12.44-40.2,17.28-55.47,4.7-14.84,7.83-25.73,10.16-31.2"/>
    <path class="cls-54" d="M.5,12.94c14.38.42,32.58,2.36,47.57,10.93,6.76,3.88,12.42,9.12,16.84,15.58,1.1,1.61,2.43,3.28,3.95,7.15,2.08,5.29,4.22,13.82,5.83,29.42,2.52,24.31,7.7,48.8,16.39,71.46,6.69,17.46,19.49,31.41,39.28,32.79,32.63,2.28,52.4-23.3,64.56-49.81,13-28.35,14.52-94.59,37.4-109.68,18.19-12,39.44,5.92,48.8,21.66,5.22,8.77,9.55,17.91,13.13,27.28,7.79,20.3,12.49,41.7,16.65,62.68,1.1,5.57,2.11,11.17,3.3,16.69,1.84,8.51,4.71,17.37,9.68,24.69,11.12,16.37,36.13,20.08,53.22,13.11,11.74-4.83,17.48-15.42,20.52-20.97,9.92-18.12,17.59-43.54,25.31-68.07,6.74-21.43,12.28-40.62,17-56.23s7.64-26.25,9.82-31.86"/>
    <path class="cls-3" d="M.5,11.87c14.58.49,32.89,2.59,47.83,11.25,6.75,3.94,12.44,9.21,16.85,15.81,1.08,1.61,2.41,3.29,3.91,7.24,2,5.27,4.05,13.89,5.54,29.75,2.3,24.54,7.15,49.3,15.7,72.3,6.67,17.95,19.81,32.21,40.04,33.61,33.35,2.31,53.74-23.86,65.78-51.2,12.64-28.7,13.57-95.73,36.08-111.06,18.29-12.45,39.92,5.92,49.31,21.88,5.24,8.9,9.59,18.17,13.18,27.67,7.8,20.58,12.45,42.27,16.46,63.61,1.07,5.68,2.02,11.37,3.16,16.99,1.76,8.68,4.58,17.73,9.55,25.2,11.13,16.72,36.5,20.45,53.78,13.29,11.89-4.97,17.61-15.83,20.62-21.45,9.76-18.4,17.61-43.99,25.28-68.84,6.63-21.46,12.11-41.05,16.73-56.99s7.44-26.78,9.48-32.53"/>
    <path class="cls-50" d="M.5,10.79c14.79.57,33.19,2.82,48.09,11.58,6.75,3.99,12.47,9.31,16.86,16.03,1.05,1.61,2.4,3.29,3.87,7.33,1.92,5.26,3.89,13.95,5.25,30.07,2.09,24.77,6.6,49.79,15.01,73.14,6.64,18.43,20.12,33.02,40.79,34.44,34.08,2.34,55.1-24.42,67.01-52.6,12.29-29.06,12.59-96.9,34.75-112.43,18.37-12.94,40.4,5.93,49.82,22.1,5.26,9.04,9.63,18.42,13.23,28.06,7.82,20.86,12.41,42.84,16.27,64.53,1.03,5.78,1.93,11.57,3.02,17.3,1.68,8.85,4.45,18.08,9.41,25.7,11.13,17.08,36.87,20.83,54.33,13.48,12.03-5.1,17.76-16.23,20.72-21.93,9.63-18.66,17.63-44.45,25.26-69.61,6.51-21.5,11.95-41.48,16.45-57.76,4.29-15.51,7.25-27.3,9.15-33.2"/>
    <path class="cls-46" d="M.5,9.72c15,.64,33.5,3.05,48.35,11.91,6.74,4.04,12.49,9.41,16.86,16.26,1.03,1.61,2.38,3.29,3.84,7.42,1.85,5.24,3.72,14.02,4.95,30.4,1.88,25,6.05,50.29,14.32,73.98,6.6,18.92,20.44,33.82,41.55,35.26,34.81,2.37,56.47-24.98,68.24-53.99,11.94-29.43,11.64-98.02,33.43-113.81,18.47-13.39,40.88,5.93,50.32,22.31,5.29,9.17,9.67,18.68,13.28,28.45,7.83,21.14,12.37,43.41,16.08,65.46.99,5.88,1.84,11.77,2.88,17.6,1.61,9.02,4.32,18.44,9.28,26.21,11.13,17.43,37.24,21.2,54.89,13.66,12.18-5.23,17.9-16.63,20.82-22.4,9.5-18.91,17.66-44.9,25.23-70.38,6.4-21.53,11.79-41.91,16.17-58.52,4.16-15.74,7.05-27.83,8.81-33.86"/>
    <path class="cls-79" d="M.5,8.65c15.2.72,33.81,3.27,48.6,12.24,6.73,4.09,12.52,9.5,16.87,16.48,1,1.61,2.37,3.3,3.8,7.52,1.77,5.23,3.56,14.08,4.66,30.73,1.67,25.24,5.49,50.78,13.63,74.81,6.57,19.4,20.76,34.63,42.3,36.08,35.53,2.4,57.85-25.54,69.46-55.39,11.6-29.81,10.66-99.16,32.11-115.19,18.55-13.86,41.36,5.94,50.83,22.53,5.31,9.3,9.71,18.94,13.33,28.83,7.85,21.42,12.29,43.99,15.89,66.38.95,5.98,1.75,11.98,2.73,17.91,1.53,9.19,4.19,18.8,9.15,26.71,11.13,17.78,37.62,21.58,55.45,13.84,12.33-5.37,18.04-17.02,20.91-22.88,9.37-19.17,17.68-45.35,25.2-71.15,6.29-21.57,11.63-42.33,15.9-59.28,4.02-15.96,6.85-28.36,8.47-34.53"/>
    <path class="cls-11" d="M.5,7.57c15.41.79,34.11,3.5,48.86,12.57,6.72,4.14,12.54,9.6,16.88,16.7.98,1.61,2.36,3.3,3.76,7.61,1.7,5.22,3.4,14.15,4.37,31.06,1.46,25.47,4.94,51.27,12.94,75.65,6.53,19.89,21.07,35.43,43.06,36.9,36.26,2.43,59.24-26.1,70.69-56.79,11.27-30.2,9.67-100.31,30.78-116.57,18.62-14.34,41.84,5.94,51.34,22.75,5.33,9.43,9.75,19.2,13.38,29.22,7.87,21.7,12.26,44.55,15.71,67.31.91,6.08,1.66,12.18,2.59,18.22,1.45,9.36,4.06,19.16,9.01,27.22,11.13,18.13,37.99,21.95,56,14.03,12.48-5.5,18.18-17.42,21.01-23.36,9.24-19.42,17.74-45.79,25.17-71.92,6.2-21.6,11.47-42.76,15.62-60.04,3.89-16.19,6.66-28.88,8.13-35.19"/>
    <path class="cls-24" d="M.5,6.5c22.75,1.26,52.27,6.76,66,29.82,2.09,3.51,6.25,7.42,7.8,39.09,1.26,25.71,4.2,51.81,12.25,76.49,6.33,20.42,21.38,36.35,43.82,37.72,36.97,2.65,61.99-26.22,71.92-58.18,12.22-30.11,9.13-100.89,29.46-117.94,19.07-14.31,42.39,5.91,51.84,22.96,20.18,35.72,26.41,76.56,31.4,116.37,1.55,9.5,3.86,19.56,8.88,27.73,10.96,18.59,38.36,22.33,56.56,14.21,12.63-5.63,18.33-17.82,21.11-23.84,23.52-50.81,43.8-147.53,48.28-169.35"/>
  </g>
  <g>
    <text class="cls-88" transform="translate(17.68 149.95) scale(1.21 1)"><tspan x="0" y="0">PROTECHTION</tspan></text>
    <g>
      <path class="cls-85" d="M37.8,127.68c3.36,0,5.33-1.54,5.33-4.28s-1.87-4.16-5.33-4.16h-7.15v8.44h7.15ZM20.71,145.47c.29-1.74.38-3.53.38-5.86v-21.43c0-2.14-.1-3.92-.38-5.78,2.26.08,3.98.12,7.06.12h10.51c9.5,0,14.74,3.76,14.74,10.66s-5.47,11.25-14.79,11.25h-7.58v5.07c0,2.34.14,4.28.38,5.98h-10.32Z"/>
      <path class="cls-85" d="M74.76,126.22c2.83,0,4.56-1.43,4.56-3.68s-1.54-3.37-4.51-3.37h-7.54v7.05h7.49ZM81.58,145.47c-.29-1.27-.87-2.89-2.35-6.18s-2.12-4.35-3.31-5.23c-1.01-.75-2.21-1.07-3.74-1.07h-4.9v6.5c0,2.69.1,4.16.38,5.98h-10.32c.29-1.82.38-3.01.38-5.94v-21.31c0-2.46-.1-3.92-.38-5.82,2.11.08,3.89.12,7.15.12h12.48c7.78,0,12.29,3.33,12.29,9.03,0,2.81-.96,5.03-2.83,6.5-1.2.91-2.21,1.35-4.56,1.98,2.45.63,3.55,1.54,5.09,4.36.72,1.27,1.39,2.61,3.55,6.89.53,1.11,1.1,2.1,2.3,4.2h-11.23Z"/>
      <path class="cls-85" d="M124.35,128.91c0-6.42-3.55-10.3-9.36-10.3s-9.46,3.92-9.46,10.3,3.6,10.46,9.46,10.46,9.36-3.96,9.36-10.46ZM134.33,128.83c0,10.46-7.73,17.39-19.39,17.39s-19.35-6.77-19.35-17.27,7.58-17.15,19.39-17.15,19.35,6.66,19.35,17.03Z"/>
      <path class="cls-85" d="M159.63,139.49c0,2.38.1,4.12.38,5.98h-10.61c.29-1.86.38-3.49.38-5.98v-19.96h-5.66c-3.02,0-3.84.04-7.25.28v-7.57c1.58.16,4.22.28,7.15.28h21.03c3.36,0,5.28-.08,7.49-.28v7.57c-2.16-.2-4.03-.28-7.49-.28h-5.42v19.96Z"/>
      <path class="cls-85" d="M206.33,145.75c-2.06-.2-3.79-.28-7.92-.28h-15.12c-3.65,0-4.99.04-7.06.12.29-1.58.38-3.05.38-5.78v-21.63c0-2.46-.1-3.84-.38-5.78,1.97.08,3.31.12,7.06.12h15.31c3.26,0,4.9-.08,7.15-.28v7.41c-2.21-.2-3.94-.28-7.15-.28h-12.48v5.82h10.37c3.17,0,4.32-.04,7.2-.28v7.33c-2.26-.2-3.89-.28-7.2-.28h-10.37v6.65h12.38c3.65,0,5.76-.08,7.83-.28v7.41Z"/>
      <path class="cls-85" d="M236.86,124c-.91-3.61-3.46-5.39-7.58-5.39-5.86,0-9.26,3.8-9.26,10.34s3.55,10.38,9.5,10.38c2.64,0,4.9-.91,6.29-2.5.82-.95,1.15-1.74,1.44-3.41l9.99,1.23c-.91,3.37-1.97,5.31-3.98,7.25-2.98,2.81-7.63,4.32-13.44,4.32s-10.8-1.5-14.21-4.36c-3.55-2.97-5.57-7.61-5.57-12.91s2-9.96,5.81-13.03c3.3-2.67,8.16-4.12,13.78-4.12,6.19,0,11.04,1.74,14.16,5.19,1.54,1.62,2.35,3.09,2.98,5.43l-9.89,1.58Z"/>
      <path class="cls-85" d="M287.83,112.51c-.29,1.62-.38,3.09-.38,5.86v21.23c0,2.58.1,3.92.38,5.86h-10.32c.29-1.66.38-3.13.38-5.86v-7.68h-16.18v7.68c0,2.58.1,4.08.38,5.86h-10.32c.29-1.62.38-3.09.38-5.86v-21.23c0-2.73-.1-4.16-.38-5.86h10.32c-.29,1.86-.38,3.41-.38,5.86v6.58h16.18v-6.58c0-2.73-.1-4.32-.38-5.86h10.32Z"/>
      <path class="cls-85" d="M314.33,139.49c0,2.38.1,4.12.38,5.98h-10.61c.29-1.86.38-3.49.38-5.98v-19.96h-5.66c-3.02,0-3.84.04-7.25.28v-7.57c1.58.16,4.22.28,7.15.28h21.03c3.36,0,5.28-.08,7.49-.28v7.57c-2.16-.2-4.03-.28-7.49-.28h-5.42v19.96Z"/>
      <path class="cls-85" d="M341.5,112.51c-.29,1.62-.38,2.97-.38,5.86v21.23c0,2.73.1,4.2.38,5.86h-10.56c.29-1.54.38-3.21.38-5.86v-21.23c0-2.97-.1-4.12-.38-5.86h10.56Z"/>
      <path class="cls-85" d="M375,128.91c0-6.42-3.55-10.3-9.36-10.3s-9.46,3.92-9.46,10.3,3.6,10.46,9.46,10.46,9.36-3.96,9.36-10.46ZM384.99,128.83c0,10.46-7.73,17.39-19.39,17.39s-19.35-6.77-19.35-17.27,7.58-17.15,19.39-17.15,19.35,6.66,19.35,17.03Z"/>
      <path class="cls-85" d="M412.73,128.71c1.39,1.7,2.3,2.97,3.46,4.71-.19-1.82-.29-3.64-.29-5.86v-9.03c0-2.61-.1-4.2-.38-6.02h10.23c-.29,1.78-.38,3.45-.38,6.02v21.03c0,2.42.14,4.24.38,5.9h-10.51c-.86-1.5-1.97-2.97-3.6-5.03l-8.88-11.05c-1.3-1.58-2.11-2.77-3.46-4.87.24,1.78.34,3.96.34,5.9v8.87c0,2.73.1,4.48.38,6.18h-10.22c.29-1.54.38-3.29.38-6.22v-20.84c0-2.3-.1-4.08-.38-5.9h10.42c.48,1.07,1.54,2.65,3.41,4.95l9.12,11.25Z"/>
    </g>
    <g>
      <path class="cls-91" d="M37.86,121.98c3.36,0,5.33-1.54,5.33-4.28s-1.87-4.16-5.33-4.16h-7.15v8.44h7.15ZM20.77,139.76c.29-1.74.38-3.53.38-5.86v-21.43c0-2.14-.1-3.92-.38-5.78,2.26.08,3.98.12,7.06.12h10.51c9.5,0,14.74,3.76,14.74,10.66s-5.47,11.25-14.79,11.25h-7.58v5.07c0,2.34.14,4.28.38,5.98h-10.32Z"/>
      <path class="cls-91" d="M74.82,120.51c2.83,0,4.56-1.43,4.56-3.68s-1.54-3.37-4.51-3.37h-7.54v7.05h7.49ZM81.64,139.76c-.29-1.27-.87-2.89-2.35-6.18s-2.12-4.35-3.31-5.23c-1.01-.75-2.21-1.07-3.74-1.07h-4.9v6.5c0,2.69.1,4.16.38,5.98h-10.32c.29-1.82.38-3.01.38-5.94v-21.31c0-2.46-.1-3.92-.38-5.82,2.11.08,3.89.12,7.15.12h12.48c7.78,0,12.29,3.33,12.29,9.03,0,2.81-.96,5.03-2.83,6.5-1.2.91-2.21,1.35-4.56,1.98,2.45.63,3.55,1.54,5.09,4.36.72,1.27,1.39,2.61,3.55,6.89.53,1.11,1.1,2.1,2.3,4.2h-11.23Z"/>
      <path class="cls-91" d="M124.4,123.2c0-6.42-3.55-10.3-9.36-10.3s-9.46,3.92-9.46,10.3,3.6,10.46,9.46,10.46,9.36-3.96,9.36-10.46ZM134.39,123.12c0,10.46-7.73,17.39-19.39,17.39s-19.35-6.77-19.35-17.27,7.58-17.15,19.39-17.15,19.35,6.66,19.35,17.03Z"/>
      <path class="cls-91" d="M159.68,133.78c0,2.38.1,4.12.38,5.98h-10.61c.29-1.86.38-3.49.38-5.98v-19.96h-5.66c-3.02,0-3.84.04-7.25.28v-7.57c1.58.16,4.22.28,7.15.28h21.03c3.36,0,5.28-.08,7.49-.28v7.57c-2.16-.2-4.03-.28-7.49-.28h-5.42v19.96Z"/>
      <path class="cls-91" d="M206.39,140.04c-2.06-.2-3.79-.28-7.92-.28h-15.12c-3.65,0-4.99.04-7.06.12.29-1.58.38-3.05.38-5.78v-21.63c0-2.46-.1-3.84-.38-5.78,1.97.08,3.31.12,7.06.12h15.31c3.26,0,4.9-.08,7.15-.28v7.41c-2.21-.2-3.94-.28-7.15-.28h-12.48v5.82h10.37c3.17,0,4.32-.04,7.2-.28v7.33c-2.26-.2-3.89-.28-7.2-.28h-10.37v6.65h12.38c3.65,0,5.76-.08,7.83-.28v7.41Z"/>
      <path class="cls-91" d="M236.91,118.29c-.91-3.61-3.46-5.39-7.58-5.39-5.86,0-9.26,3.8-9.26,10.34s3.55,10.38,9.5,10.38c2.64,0,4.9-.91,6.29-2.5.82-.95,1.15-1.74,1.44-3.41l9.99,1.23c-.91,3.37-1.97,5.31-3.98,7.25-2.98,2.81-7.63,4.32-13.44,4.32s-10.8-1.5-14.21-4.36c-3.55-2.97-5.57-7.61-5.57-12.91s2-9.96,5.81-13.03c3.3-2.67,8.16-4.12,13.78-4.12,6.19,0,11.04,1.74,14.16,5.19,1.54,1.62,2.35,3.09,2.98,5.43l-9.89,1.58Z"/>
      <path class="cls-91" d="M287.89,106.8c-.29,1.62-.38,3.09-.38,5.86v21.23c0,2.58.1,3.92.38,5.86h-10.32c.29-1.66.38-3.13.38-5.86v-7.68h-16.18v7.68c0,2.58.1,4.08.38,5.86h-10.32c.29-1.62.38-3.09.38-5.86v-21.23c0-2.73-.1-4.16-.38-5.86h10.32c-.29,1.86-.38,3.41-.38,5.86v6.58h16.18v-6.58c0-2.73-.1-4.32-.38-5.86h10.32Z"/>
      <path class="cls-91" d="M314.38,133.78c0,2.38.1,4.12.38,5.98h-10.61c.29-1.86.38-3.49.38-5.98v-19.96h-5.66c-3.02,0-3.84.04-7.25.28v-7.57c1.58.16,4.22.28,7.15.28h21.03c3.36,0,5.28-.08,7.49-.28v7.57c-2.16-.2-4.03-.28-7.49-.28h-5.42v19.96Z"/>
      <path class="cls-91" d="M341.55,106.8c-.29,1.62-.38,2.97-.38,5.86v21.23c0,2.73.1,4.2.38,5.86h-10.56c.29-1.54.38-3.21.38-5.86v-21.23c0-2.97-.1-4.12-.38-5.86h10.56Z"/>
      <path class="cls-91" d="M375.06,123.2c0-6.42-3.55-10.3-9.36-10.3s-9.46,3.92-9.46,10.3,3.6,10.46,9.46,10.46,9.36-3.96,9.36-10.46ZM385.04,123.12c0,10.46-7.73,17.39-19.39,17.39s-19.35-6.77-19.35-17.27,7.58-17.15,19.39-17.15,19.35,6.66,19.35,17.03Z"/>
      <path class="cls-91" d="M412.78,123.01c1.39,1.7,2.3,2.97,3.46,4.71-.19-1.82-.29-3.64-.29-5.86v-9.03c0-2.61-.1-4.2-.38-6.02h10.23c-.29,1.78-.38,3.45-.38,6.02v21.03c0,2.42.14,4.24.38,5.9h-10.51c-.86-1.5-1.97-2.97-3.6-5.03l-8.88-11.05c-1.3-1.58-2.11-2.77-3.46-4.87.24,1.78.34,3.96.34,5.9v8.87c0,2.73.1,4.48.38,6.18h-10.22c.29-1.54.38-3.29.38-6.22v-20.84c0-2.3-.1-4.08-.38-5.9h10.42c.48,1.07,1.54,2.65,3.41,4.95l9.12,11.25Z"/>
    </g>
    <g>
      <path class="cls-90" d="M37.92,116.27c3.36,0,5.33-1.54,5.33-4.28s-1.87-4.16-5.33-4.16h-7.15v8.44h7.15ZM20.83,134.05c.29-1.74.38-3.53.38-5.86v-21.43c0-2.14-.1-3.92-.38-5.78,2.26.08,3.98.12,7.06.12h10.51c9.5,0,14.74,3.76,14.74,10.66s-5.47,11.25-14.79,11.25h-7.58v5.07c0,2.34.14,4.28.38,5.98h-10.32Z"/>
      <path class="cls-90" d="M74.87,114.8c2.83,0,4.56-1.43,4.56-3.68s-1.54-3.37-4.51-3.37h-7.54v7.05h7.49ZM81.69,134.05c-.29-1.27-.87-2.89-2.35-6.18s-2.12-4.35-3.31-5.23c-1.01-.75-2.21-1.07-3.74-1.07h-4.9v6.5c0,2.69.1,4.16.38,5.98h-10.32c.29-1.82.38-3.01.38-5.94v-21.31c0-2.46-.1-3.92-.38-5.82,2.11.08,3.89.12,7.15.12h12.48c7.78,0,12.29,3.33,12.29,9.03,0,2.81-.96,5.03-2.83,6.5-1.2.91-2.21,1.35-4.56,1.98,2.45.63,3.55,1.54,5.09,4.36.72,1.27,1.39,2.61,3.55,6.89.53,1.11,1.1,2.1,2.3,4.2h-11.23Z"/>
      <path class="cls-90" d="M124.46,117.49c0-6.42-3.55-10.3-9.36-10.3s-9.46,3.92-9.46,10.3,3.6,10.46,9.46,10.46,9.36-3.96,9.36-10.46ZM134.44,117.41c0,10.46-7.73,17.39-19.39,17.39s-19.35-6.77-19.35-17.27,7.58-17.15,19.39-17.15,19.35,6.66,19.35,17.03Z"/>
      <path class="cls-90" d="M159.74,128.07c0,2.38.1,4.12.38,5.98h-10.61c.29-1.86.38-3.49.38-5.98v-19.96h-5.66c-3.02,0-3.84.04-7.25.28v-7.57c1.58.16,4.22.28,7.15.28h21.03c3.36,0,5.28-.08,7.49-.28v7.57c-2.16-.2-4.03-.28-7.49-.28h-5.42v19.96Z"/>
      <path class="cls-90" d="M206.44,134.33c-2.06-.2-3.79-.28-7.92-.28h-15.12c-3.65,0-4.99.04-7.06.12.29-1.58.38-3.05.38-5.78v-21.63c0-2.46-.1-3.84-.38-5.78,1.97.08,3.31.12,7.06.12h15.31c3.26,0,4.9-.08,7.15-.28v7.41c-2.21-.2-3.94-.28-7.15-.28h-12.48v5.82h10.37c3.17,0,4.32-.04,7.2-.28v7.33c-2.26-.2-3.89-.28-7.2-.28h-10.37v6.65h12.38c3.65,0,5.76-.08,7.83-.28v7.41Z"/>
      <path class="cls-90" d="M236.97,112.58c-.91-3.61-3.46-5.39-7.58-5.39-5.86,0-9.26,3.8-9.26,10.34s3.55,10.38,9.5,10.38c2.64,0,4.9-.91,6.29-2.5.82-.95,1.15-1.74,1.44-3.41l9.99,1.23c-.91,3.37-1.97,5.31-3.98,7.25-2.98,2.81-7.63,4.32-13.44,4.32s-10.8-1.5-14.21-4.36c-3.55-2.97-5.57-7.61-5.57-12.91s2-9.96,5.81-13.03c3.3-2.67,8.16-4.12,13.78-4.12,6.19,0,11.04,1.74,14.16,5.19,1.54,1.62,2.35,3.09,2.98,5.43l-9.89,1.58Z"/>
      <path class="cls-90" d="M287.95,101.09c-.29,1.62-.38,3.09-.38,5.86v21.23c0,2.58.1,3.92.38,5.86h-10.32c.29-1.66.38-3.13.38-5.86v-7.68h-16.18v7.68c0,2.58.1,4.08.38,5.86h-10.32c.29-1.62.38-3.09.38-5.86v-21.23c0-2.73-.1-4.16-.38-5.86h10.32c-.29,1.86-.38,3.41-.38,5.86v6.58h16.18v-6.58c0-2.73-.1-4.32-.38-5.86h10.32Z"/>
      <path class="cls-90" d="M314.44,128.07c0,2.38.1,4.12.38,5.98h-10.61c.29-1.86.38-3.49.38-5.98v-19.96h-5.66c-3.02,0-3.84.04-7.25.28v-7.57c1.58.16,4.22.28,7.15.28h21.03c3.36,0,5.28-.08,7.49-.28v7.57c-2.16-.2-4.03-.28-7.49-.28h-5.42v19.96Z"/>
      <path class="cls-90" d="M341.61,101.09c-.29,1.62-.38,2.97-.38,5.86v21.23c0,2.73.1,4.2.38,5.86h-10.56c.29-1.54.38-3.21.38-5.86v-21.23c0-2.97-.1-4.12-.38-5.86h10.56Z"/>
      <path class="cls-90" d="M375.11,117.49c0-6.42-3.55-10.3-9.36-10.3s-9.46,3.92-9.46,10.3,3.6,10.46,9.46,10.46,9.36-3.96,9.36-10.46ZM385.1,117.41c0,10.46-7.73,17.39-19.39,17.39s-19.35-6.77-19.35-17.27,7.58-17.15,19.39-17.15,19.35,6.66,19.35,17.03Z"/>
      <path class="cls-90" d="M412.84,117.3c1.39,1.7,2.3,2.97,3.46,4.71-.19-1.82-.29-3.64-.29-5.86v-9.03c0-2.61-.1-4.2-.38-6.02h10.23c-.29,1.78-.38,3.45-.38,6.02v21.03c0,2.42.14,4.24.38,5.9h-10.51c-.86-1.5-1.97-2.97-3.6-5.03l-8.88-11.05c-1.3-1.58-2.11-2.77-3.46-4.87.24,1.78.34,3.96.34,5.9v8.87c0,2.73.1,4.48.38,6.18h-10.22c.29-1.54.38-3.29.38-6.22v-20.84c0-2.3-.1-4.08-.38-5.9h10.42c.48,1.07,1.54,2.65,3.41,4.95l9.12,11.25Z"/>
    </g>
    <g>
      <path class="cls-87" d="M37.97,110.56c3.36,0,5.33-1.54,5.33-4.28s-1.87-4.16-5.33-4.16h-7.15v8.44h7.15ZM20.88,128.34c.29-1.74.38-3.53.38-5.86v-21.43c0-2.14-.1-3.92-.38-5.78,2.26.08,3.98.12,7.06.12h10.51c9.5,0,14.74,3.76,14.74,10.66s-5.47,11.25-14.79,11.25h-7.58v5.07c0,2.34.14,4.28.38,5.98h-10.32Z"/>
      <path class="cls-87" d="M74.93,109.09c2.83,0,4.56-1.43,4.56-3.68s-1.54-3.37-4.51-3.37h-7.54v7.05h7.49ZM81.75,128.34c-.29-1.27-.87-2.89-2.35-6.18s-2.12-4.35-3.31-5.23c-1.01-.75-2.21-1.07-3.74-1.07h-4.9v6.5c0,2.69.1,4.16.38,5.98h-10.32c.29-1.82.38-3.01.38-5.94v-21.31c0-2.46-.1-3.92-.38-5.82,2.11.08,3.89.12,7.15.12h12.48c7.78,0,12.29,3.33,12.29,9.03,0,2.81-.96,5.03-2.83,6.5-1.2.91-2.21,1.35-4.56,1.98,2.45.63,3.55,1.54,5.09,4.36.72,1.27,1.39,2.61,3.55,6.89.53,1.11,1.1,2.1,2.3,4.2h-11.23Z"/>
      <path class="cls-87" d="M124.52,111.78c0-6.42-3.55-10.3-9.36-10.3s-9.46,3.92-9.46,10.3,3.6,10.46,9.46,10.46,9.36-3.96,9.36-10.46ZM134.5,111.71c0,10.46-7.73,17.39-19.39,17.39s-19.35-6.77-19.35-17.27,7.58-17.15,19.39-17.15,19.35,6.66,19.35,17.03Z"/>
      <path class="cls-87" d="M159.79,122.36c0,2.38.1,4.12.38,5.98h-10.61c.29-1.86.38-3.49.38-5.98v-19.96h-5.66c-3.02,0-3.84.04-7.25.28v-7.57c1.58.16,4.22.28,7.15.28h21.03c3.36,0,5.28-.08,7.49-.28v7.57c-2.16-.2-4.03-.28-7.49-.28h-5.42v19.96Z"/>
      <path class="cls-87" d="M206.5,128.62c-2.06-.2-3.79-.28-7.92-.28h-15.12c-3.65,0-4.99.04-7.06.12.29-1.58.38-3.05.38-5.78v-21.63c0-2.46-.1-3.84-.38-5.78,1.97.08,3.31.12,7.06.12h15.31c3.26,0,4.9-.08,7.15-.28v7.41c-2.21-.2-3.94-.28-7.15-.28h-12.48v5.82h10.37c3.17,0,4.32-.04,7.2-.28v7.33c-2.26-.2-3.89-.28-7.2-.28h-10.37v6.65h12.38c3.65,0,5.76-.08,7.83-.28v7.41Z"/>
      <path class="cls-87" d="M237.03,106.87c-.91-3.61-3.46-5.39-7.58-5.39-5.86,0-9.26,3.8-9.26,10.34s3.55,10.38,9.5,10.38c2.64,0,4.9-.91,6.29-2.5.82-.95,1.15-1.74,1.44-3.41l9.99,1.23c-.91,3.37-1.97,5.31-3.98,7.25-2.98,2.81-7.63,4.32-13.44,4.32s-10.8-1.5-14.21-4.36c-3.55-2.97-5.57-7.61-5.57-12.91s2-9.96,5.81-13.03c3.3-2.67,8.16-4.12,13.78-4.12,6.19,0,11.04,1.74,14.16,5.19,1.54,1.62,2.35,3.09,2.98,5.43l-9.89,1.58Z"/>
      <path class="cls-87" d="M288,95.39c-.29,1.62-.38,3.09-.38,5.86v21.23c0,2.58.1,3.92.38,5.86h-10.32c.29-1.66.38-3.13.38-5.86v-7.68h-16.18v7.68c0,2.58.1,4.08.38,5.86h-10.32c.29-1.62.38-3.09.38-5.86v-21.23c0-2.73-.1-4.16-.38-5.86h10.32c-.29,1.86-.38,3.41-.38,5.86v6.58h16.18v-6.58c0-2.73-.1-4.32-.38-5.86h10.32Z"/>
      <path class="cls-87" d="M314.5,122.36c0,2.38.1,4.12.38,5.98h-10.61c.29-1.86.38-3.49.38-5.98v-19.96h-5.66c-3.02,0-3.84.04-7.25.28v-7.57c1.58.16,4.22.28,7.15.28h21.03c3.36,0,5.28-.08,7.49-.28v7.57c-2.16-.2-4.03-.28-7.49-.28h-5.42v19.96Z"/>
      <path class="cls-87" d="M341.66,95.39c-.29,1.62-.38,2.97-.38,5.86v21.23c0,2.73.1,4.2.38,5.86h-10.56c.29-1.54.38-3.21.38-5.86v-21.23c0-2.97-.1-4.12-.38-5.86h10.56Z"/>
      <path class="cls-87" d="M375.17,111.78c0-6.42-3.55-10.3-9.36-10.3s-9.46,3.92-9.46,10.3,3.6,10.46,9.46,10.46,9.36-3.96,9.36-10.46ZM385.15,111.71c0,10.46-7.73,17.39-19.39,17.39s-19.35-6.77-19.35-17.27,7.58-17.15,19.39-17.15,19.35,6.66,19.35,17.03Z"/>
      <path class="cls-87" d="M412.9,111.59c1.39,1.7,2.3,2.97,3.46,4.71-.19-1.82-.29-3.64-.29-5.86v-9.03c0-2.61-.1-4.2-.38-6.02h10.23c-.29,1.78-.38,3.45-.38,6.02v21.03c0,2.42.14,4.24.38,5.9h-10.51c-.86-1.5-1.97-2.97-3.6-5.03l-8.88-11.05c-1.3-1.58-2.11-2.77-3.46-4.87.24,1.78.34,3.96.34,5.9v8.87c0,2.73.1,4.48.38,6.18h-10.22c.29-1.54.38-3.29.38-6.22v-20.84c0-2.3-.1-4.08-.38-5.9h10.42c.48,1.07,1.54,2.65,3.41,4.95l9.12,11.25Z"/>
    </g>
    <g>
      <path class="cls-94" d="M38.03,104.85c3.36,0,5.33-1.54,5.33-4.28s-1.87-4.16-5.33-4.16h-7.15v8.44h7.15ZM20.94,122.63c.29-1.74.38-3.53.38-5.86v-21.43c0-2.14-.1-3.92-.38-5.78,2.26.08,3.98.12,7.06.12h10.51c9.5,0,14.74,3.76,14.74,10.66s-5.47,11.25-14.79,11.25h-7.58v5.07c0,2.34.14,4.28.38,5.98h-10.32Z"/>
      <path class="cls-94" d="M74.99,103.38c2.83,0,4.56-1.43,4.56-3.68s-1.54-3.37-4.51-3.37h-7.54v7.05h7.49ZM81.8,122.63c-.29-1.27-.87-2.89-2.35-6.18s-2.12-4.35-3.31-5.23c-1.01-.75-2.21-1.07-3.74-1.07h-4.9v6.5c0,2.69.1,4.16.38,5.98h-10.32c.29-1.82.38-3.01.38-5.94v-21.31c0-2.46-.1-3.92-.38-5.82,2.11.08,3.89.12,7.15.12h12.48c7.78,0,12.29,3.33,12.29,9.03,0,2.81-.96,5.03-2.83,6.5-1.2.91-2.21,1.35-4.56,1.98,2.45.63,3.55,1.54,5.09,4.36.72,1.27,1.39,2.61,3.55,6.89.53,1.11,1.1,2.1,2.3,4.2h-11.23Z"/>
      <path class="cls-94" d="M124.57,106.08c0-6.42-3.55-10.3-9.36-10.3s-9.46,3.92-9.46,10.3,3.6,10.46,9.46,10.46,9.36-3.96,9.36-10.46ZM134.56,106c0,10.46-7.73,17.39-19.39,17.39s-19.35-6.77-19.35-17.27,7.58-17.15,19.39-17.15,19.35,6.66,19.35,17.03Z"/>
      <path class="cls-94" d="M159.85,116.65c0,2.38.1,4.12.38,5.98h-10.61c.29-1.86.38-3.49.38-5.98v-19.96h-5.66c-3.02,0-3.84.04-7.25.28v-7.57c1.58.16,4.22.28,7.15.28h21.03c3.36,0,5.28-.08,7.49-.28v7.57c-2.16-.2-4.03-.28-7.49-.28h-5.42v19.96Z"/>
      <path class="cls-94" d="M206.55,122.91c-2.06-.2-3.79-.28-7.92-.28h-15.12c-3.65,0-4.99.04-7.06.12.29-1.58.38-3.05.38-5.78v-21.63c0-2.46-.1-3.84-.38-5.78,1.97.08,3.31.12,7.06.12h15.31c3.26,0,4.9-.08,7.15-.28v7.41c-2.21-.2-3.94-.28-7.15-.28h-12.48v5.82h10.37c3.17,0,4.32-.04,7.2-.28v7.33c-2.26-.2-3.89-.28-7.2-.28h-10.37v6.65h12.38c3.65,0,5.76-.08,7.83-.28v7.41Z"/>
      <path class="cls-94" d="M237.08,101.16c-.91-3.61-3.46-5.39-7.58-5.39-5.86,0-9.26,3.8-9.26,10.34s3.55,10.38,9.5,10.38c2.64,0,4.9-.91,6.29-2.5.82-.95,1.15-1.74,1.44-3.41l9.99,1.23c-.91,3.37-1.97,5.31-3.98,7.25-2.98,2.81-7.63,4.32-13.44,4.32s-10.8-1.5-14.21-4.36c-3.55-2.97-5.57-7.61-5.57-12.91s2-9.96,5.81-13.03c3.3-2.67,8.16-4.12,13.78-4.12,6.19,0,11.04,1.74,14.16,5.19,1.54,1.62,2.35,3.09,2.98,5.43l-9.89,1.58Z"/>
      <path class="cls-94" d="M288.06,89.68c-.29,1.62-.38,3.09-.38,5.86v21.23c0,2.58.1,3.92.38,5.86h-10.32c.29-1.66.38-3.13.38-5.86v-7.68h-16.18v7.68c0,2.58.1,4.08.38,5.86h-10.32c.29-1.62.38-3.09.38-5.86v-21.23c0-2.73-.1-4.16-.38-5.86h10.32c-.29,1.86-.38,3.41-.38,5.86v6.58h16.18v-6.58c0-2.73-.1-4.32-.38-5.86h10.32Z"/>
      <path class="cls-94" d="M314.55,116.65c0,2.38.1,4.12.38,5.98h-10.61c.29-1.86.38-3.49.38-5.98v-19.96h-5.66c-3.02,0-3.84.04-7.25.28v-7.57c1.58.16,4.22.28,7.15.28h21.03c3.36,0,5.28-.08,7.49-.28v7.57c-2.16-.2-4.03-.28-7.49-.28h-5.42v19.96Z"/>
      <path class="cls-94" d="M341.72,89.68c-.29,1.62-.38,2.97-.38,5.86v21.23c0,2.73.1,4.2.38,5.86h-10.56c.29-1.54.38-3.21.38-5.86v-21.23c0-2.97-.1-4.12-.38-5.86h10.56Z"/>
      <path class="cls-94" d="M375.22,106.08c0-6.42-3.55-10.3-9.36-10.3s-9.46,3.92-9.46,10.3,3.6,10.46,9.46,10.46,9.36-3.96,9.36-10.46ZM385.21,106c0,10.46-7.73,17.39-19.39,17.39s-19.35-6.77-19.35-17.27,7.58-17.15,19.39-17.15,19.35,6.66,19.35,17.03Z"/>
      <path class="cls-94" d="M412.95,105.88c1.39,1.7,2.3,2.97,3.46,4.71-.19-1.82-.29-3.64-.29-5.86v-9.03c0-2.61-.1-4.2-.38-6.02h10.23c-.29,1.78-.38,3.45-.38,6.02v21.03c0,2.42.14,4.24.38,5.9h-10.51c-.86-1.5-1.97-2.97-3.6-5.03l-8.88-11.05c-1.3-1.58-2.11-2.77-3.46-4.87.24,1.78.34,3.96.34,5.9v8.87c0,2.73.1,4.48.38,6.18h-10.22c.29-1.54.38-3.29.38-6.22v-20.84c0-2.3-.1-4.08-.38-5.9h10.42c.48,1.07,1.54,2.65,3.41,4.95l9.12,11.25Z"/>
    </g>
    <g>
      <path class="cls-95" d="M38.08,99.14c3.36,0,5.33-1.54,5.33-4.28s-1.87-4.16-5.33-4.16h-7.15v8.44h7.15ZM20.99,116.92c.29-1.74.38-3.53.38-5.86v-21.43c0-2.14-.1-3.92-.38-5.78,2.26.08,3.98.12,7.06.12h10.51c9.5,0,14.74,3.76,14.74,10.66s-5.47,11.25-14.79,11.25h-7.58v5.07c0,2.34.14,4.28.38,5.98h-10.32Z"/>
      <path class="cls-95" d="M75.04,97.67c2.83,0,4.56-1.43,4.56-3.68s-1.54-3.37-4.51-3.37h-7.54v7.05h7.49ZM81.86,116.92c-.29-1.27-.87-2.89-2.35-6.18s-2.12-4.35-3.31-5.23c-1.01-.75-2.21-1.07-3.74-1.07h-4.9v6.5c0,2.69.1,4.16.38,5.98h-10.32c.29-1.82.38-3.01.38-5.94v-21.31c0-2.46-.1-3.92-.38-5.82,2.11.08,3.89.12,7.15.12h12.48c7.78,0,12.29,3.33,12.29,9.03,0,2.81-.96,5.03-2.83,6.5-1.2.91-2.21,1.35-4.56,1.98,2.45.63,3.55,1.54,5.09,4.36.72,1.27,1.39,2.61,3.55,6.89.53,1.11,1.1,2.1,2.3,4.2h-11.23Z"/>
      <path class="cls-95" d="M124.63,100.37c0-6.42-3.55-10.3-9.36-10.3s-9.46,3.92-9.46,10.3,3.6,10.46,9.46,10.46,9.36-3.96,9.36-10.46ZM134.61,100.29c0,10.46-7.73,17.39-19.39,17.39s-19.35-6.77-19.35-17.27,7.58-17.15,19.39-17.15,19.35,6.66,19.35,17.03Z"/>
      <path class="cls-95" d="M159.91,110.94c0,2.38.1,4.12.38,5.98h-10.61c.29-1.86.38-3.49.38-5.98v-19.96h-5.66c-3.02,0-3.84.04-7.25.28v-7.57c1.58.16,4.22.28,7.15.28h21.03c3.36,0,5.28-.08,7.49-.28v7.57c-2.16-.2-4.03-.28-7.49-.28h-5.42v19.96Z"/>
      <path class="cls-95" d="M206.61,117.2c-2.06-.2-3.79-.28-7.92-.28h-15.12c-3.65,0-4.99.04-7.06.12.29-1.58.38-3.05.38-5.78v-21.63c0-2.46-.1-3.84-.38-5.78,1.97.08,3.31.12,7.06.12h15.31c3.26,0,4.9-.08,7.15-.28v7.41c-2.21-.2-3.94-.28-7.15-.28h-12.48v5.82h10.37c3.17,0,4.32-.04,7.2-.28v7.33c-2.26-.2-3.89-.28-7.2-.28h-10.37v6.65h12.38c3.65,0,5.76-.08,7.83-.28v7.41Z"/>
      <path class="cls-95" d="M237.14,95.46c-.91-3.61-3.46-5.39-7.58-5.39-5.86,0-9.26,3.8-9.26,10.34s3.55,10.38,9.5,10.38c2.64,0,4.9-.91,6.29-2.5.82-.95,1.15-1.74,1.44-3.41l9.99,1.23c-.91,3.37-1.97,5.31-3.98,7.25-2.98,2.81-7.63,4.32-13.44,4.32s-10.8-1.5-14.21-4.36c-3.55-2.97-5.57-7.61-5.57-12.91s2-9.96,5.81-13.03c3.3-2.67,8.16-4.12,13.78-4.12,6.19,0,11.04,1.74,14.16,5.19,1.54,1.62,2.35,3.09,2.98,5.43l-9.89,1.58Z"/>
      <path class="cls-95" d="M288.11,83.97c-.29,1.62-.38,3.09-.38,5.86v21.23c0,2.58.1,3.92.38,5.86h-10.32c.29-1.66.38-3.13.38-5.86v-7.68h-16.18v7.68c0,2.58.1,4.08.38,5.86h-10.32c.29-1.62.38-3.09.38-5.86v-21.23c0-2.73-.1-4.16-.38-5.86h10.32c-.29,1.86-.38,3.41-.38,5.86v6.58h16.18v-6.58c0-2.73-.1-4.32-.38-5.86h10.32Z"/>
      <path class="cls-95" d="M314.61,110.94c0,2.38.1,4.12.38,5.98h-10.61c.29-1.86.38-3.49.38-5.98v-19.96h-5.66c-3.02,0-3.84.04-7.25.28v-7.57c1.58.16,4.22.28,7.15.28h21.03c3.36,0,5.28-.08,7.49-.28v7.57c-2.16-.2-4.03-.28-7.49-.28h-5.42v19.96Z"/>
      <path class="cls-95" d="M341.78,83.97c-.29,1.62-.38,2.97-.38,5.86v21.23c0,2.73.1,4.2.38,5.86h-10.56c.29-1.54.38-3.21.38-5.86v-21.23c0-2.97-.1-4.12-.38-5.86h10.56Z"/>
      <path class="cls-95" d="M375.28,100.37c0-6.42-3.55-10.3-9.36-10.3s-9.46,3.92-9.46,10.3,3.6,10.46,9.46,10.46,9.36-3.96,9.36-10.46ZM385.27,100.29c0,10.46-7.73,17.39-19.39,17.39s-19.35-6.77-19.35-17.27,7.58-17.15,19.39-17.15,19.35,6.66,19.35,17.03Z"/>
      <path class="cls-95" d="M413.01,100.17c1.39,1.7,2.3,2.97,3.46,4.71-.19-1.82-.29-3.64-.29-5.86v-9.03c0-2.61-.1-4.2-.38-6.02h10.23c-.29,1.78-.38,3.45-.38,6.02v21.03c0,2.42.14,4.24.38,5.9h-10.51c-.86-1.5-1.97-2.97-3.6-5.03l-8.88-11.05c-1.3-1.58-2.11-2.77-3.46-4.87.24,1.78.34,3.96.34,5.9v8.87c0,2.73.1,4.48.38,6.18h-10.22c.29-1.54.38-3.29.38-6.22v-20.84c0-2.3-.1-4.08-.38-5.9h10.42c.48,1.07,1.54,2.65,3.41,4.95l9.12,11.25Z"/>
    </g>
    <g>
      <path class="cls-92" d="M38.14,93.43c3.36,0,5.33-1.54,5.33-4.28s-1.87-4.16-5.33-4.16h-7.15v8.44h7.15ZM21.05,111.22c.29-1.74.38-3.53.38-5.86v-21.43c0-2.14-.1-3.92-.38-5.78,2.26.08,3.98.12,7.06.12h10.51c9.5,0,14.74,3.76,14.74,10.66s-5.47,11.25-14.79,11.25h-7.58v5.07c0,2.34.14,4.28.38,5.98h-10.32Z"/>
      <path class="cls-92" d="M75.1,91.96c2.83,0,4.56-1.43,4.56-3.68s-1.54-3.37-4.51-3.37h-7.54v7.05h7.49ZM81.92,111.22c-.29-1.27-.87-2.89-2.35-6.18s-2.12-4.35-3.31-5.23c-1.01-.75-2.21-1.07-3.74-1.07h-4.9v6.5c0,2.69.1,4.16.38,5.98h-10.32c.29-1.82.38-3.01.38-5.94v-21.31c0-2.46-.1-3.92-.38-5.82,2.11.08,3.89.12,7.15.12h12.48c7.78,0,12.29,3.33,12.29,9.03,0,2.81-.96,5.03-2.83,6.5-1.2.91-2.21,1.35-4.56,1.98,2.45.63,3.55,1.54,5.09,4.36.72,1.27,1.39,2.61,3.55,6.89.53,1.11,1.1,2.1,2.3,4.2h-11.23Z"/>
      <path class="cls-92" d="M124.68,94.66c0-6.42-3.55-10.3-9.36-10.3s-9.46,3.92-9.46,10.3,3.6,10.46,9.46,10.46,9.36-3.96,9.36-10.46ZM134.67,94.58c0,10.46-7.73,17.39-19.39,17.39s-19.35-6.77-19.35-17.27,7.58-17.15,19.39-17.15,19.35,6.66,19.35,17.03Z"/>
      <path class="cls-92" d="M159.96,105.23c0,2.38.1,4.12.38,5.98h-10.61c.29-1.86.38-3.49.38-5.98v-19.96h-5.66c-3.02,0-3.84.04-7.25.28v-7.57c1.58.16,4.22.28,7.15.28h21.03c3.36,0,5.28-.08,7.49-.28v7.57c-2.16-.2-4.03-.28-7.49-.28h-5.42v19.96Z"/>
      <path class="cls-92" d="M206.67,111.49c-2.06-.2-3.79-.28-7.92-.28h-15.12c-3.65,0-4.99.04-7.06.12.29-1.58.38-3.05.38-5.78v-21.63c0-2.46-.1-3.84-.38-5.78,1.97.08,3.31.12,7.06.12h15.31c3.26,0,4.9-.08,7.15-.28v7.41c-2.21-.2-3.94-.28-7.15-.28h-12.48v5.82h10.37c3.17,0,4.32-.04,7.2-.28v7.33c-2.26-.2-3.89-.28-7.2-.28h-10.37v6.65h12.38c3.65,0,5.76-.08,7.83-.28v7.41Z"/>
      <path class="cls-92" d="M237.19,89.75c-.91-3.61-3.46-5.39-7.58-5.39-5.86,0-9.26,3.8-9.26,10.34s3.55,10.38,9.5,10.38c2.64,0,4.9-.91,6.29-2.5.82-.95,1.15-1.74,1.44-3.41l9.99,1.23c-.91,3.37-1.97,5.31-3.98,7.25-2.98,2.81-7.63,4.32-13.44,4.32s-10.8-1.5-14.21-4.36c-3.55-2.97-5.57-7.61-5.57-12.91s2-9.96,5.81-13.03c3.3-2.67,8.16-4.12,13.78-4.12,6.19,0,11.04,1.74,14.16,5.19,1.54,1.62,2.35,3.09,2.98,5.43l-9.89,1.58Z"/>
      <path class="cls-92" d="M288.17,78.26c-.29,1.62-.38,3.09-.38,5.86v21.23c0,2.58.1,3.92.38,5.86h-10.32c.29-1.66.38-3.13.38-5.86v-7.68h-16.18v7.68c0,2.58.1,4.08.38,5.86h-10.32c.29-1.62.38-3.09.38-5.86v-21.23c0-2.73-.1-4.16-.38-5.86h10.32c-.29,1.86-.38,3.41-.38,5.86v6.58h16.18v-6.58c0-2.73-.1-4.32-.38-5.86h10.32Z"/>
      <path class="cls-92" d="M314.66,105.23c0,2.38.1,4.12.38,5.98h-10.61c.29-1.86.38-3.49.38-5.98v-19.96h-5.66c-3.02,0-3.84.04-7.25.28v-7.57c1.58.16,4.22.28,7.15.28h21.03c3.36,0,5.28-.08,7.49-.28v7.57c-2.16-.2-4.03-.28-7.49-.28h-5.42v19.96Z"/>
      <path class="cls-92" d="M341.83,78.26c-.29,1.62-.38,2.97-.38,5.86v21.23c0,2.73.1,4.2.38,5.86h-10.56c.29-1.54.38-3.21.38-5.86v-21.23c0-2.97-.1-4.12-.38-5.86h10.56Z"/>
      <path class="cls-92" d="M375.34,94.66c0-6.42-3.55-10.3-9.36-10.3s-9.46,3.92-9.46,10.3,3.6,10.46,9.46,10.46,9.36-3.96,9.36-10.46ZM385.32,94.58c0,10.46-7.73,17.39-19.39,17.39s-19.35-6.77-19.35-17.27,7.58-17.15,19.39-17.15,19.35,6.66,19.35,17.03Z"/>
      <path class="cls-92" d="M413.06,94.46c1.39,1.7,2.3,2.97,3.46,4.71-.19-1.82-.29-3.64-.29-5.86v-9.03c0-2.61-.1-4.2-.38-6.02h10.23c-.29,1.78-.38,3.45-.38,6.02v21.03c0,2.42.14,4.24.38,5.9h-10.51c-.86-1.5-1.97-2.97-3.6-5.03l-8.88-11.05c-1.3-1.58-2.11-2.77-3.46-4.87.24,1.78.34,3.96.34,5.9v8.87c0,2.73.1,4.48.38,6.18h-10.22c.29-1.54.38-3.29.38-6.22v-20.84c0-2.3-.1-4.08-.38-5.9h10.42c.48,1.07,1.54,2.65,3.41,4.95l9.12,11.25Z"/>
    </g>
    <g>
      <path class="cls-86" d="M38.2,87.72c3.36,0,5.33-1.54,5.33-4.28s-1.87-4.16-5.33-4.16h-7.15v8.44h7.15ZM21.11,105.51c.29-1.74.38-3.53.38-5.86v-21.43c0-2.14-.1-3.92-.38-5.78,2.26.08,3.98.12,7.06.12h10.51c9.5,0,14.74,3.76,14.74,10.66s-5.47,11.25-14.79,11.25h-7.58v5.07c0,2.34.14,4.28.38,5.98h-10.32Z"/>
      <path class="cls-86" d="M75.15,86.26c2.83,0,4.56-1.43,4.56-3.68s-1.54-3.37-4.51-3.37h-7.54v7.05h7.49ZM81.97,105.51c-.29-1.27-.87-2.89-2.35-6.18s-2.12-4.35-3.31-5.23c-1.01-.75-2.21-1.07-3.74-1.07h-4.9v6.5c0,2.69.1,4.16.38,5.98h-10.32c.29-1.82.38-3.01.38-5.94v-21.31c0-2.46-.1-3.92-.38-5.82,2.11.08,3.89.12,7.15.12h12.48c7.78,0,12.29,3.33,12.29,9.03,0,2.81-.96,5.03-2.83,6.5-1.2.91-2.21,1.35-4.56,1.98,2.45.63,3.55,1.54,5.09,4.36.72,1.27,1.39,2.61,3.55,6.89.53,1.11,1.1,2.1,2.3,4.2h-11.23Z"/>
      <path class="cls-86" d="M124.74,88.95c0-6.42-3.55-10.3-9.36-10.3s-9.46,3.92-9.46,10.3,3.6,10.46,9.46,10.46,9.36-3.96,9.36-10.46ZM134.72,88.87c0,10.46-7.73,17.39-19.39,17.39s-19.35-6.77-19.35-17.27,7.58-17.15,19.39-17.15,19.35,6.66,19.35,17.03Z"/>
      <path class="cls-86" d="M160.02,99.53c0,2.38.1,4.12.38,5.98h-10.61c.29-1.86.38-3.49.38-5.98v-19.96h-5.66c-3.02,0-3.84.04-7.25.28v-7.57c1.58.16,4.22.28,7.15.28h21.03c3.36,0,5.28-.08,7.49-.28v7.57c-2.16-.2-4.03-.28-7.49-.28h-5.42v19.96Z"/>
      <path class="cls-86" d="M206.72,105.78c-2.06-.2-3.79-.28-7.92-.28h-15.12c-3.65,0-4.99.04-7.06.12.29-1.58.38-3.05.38-5.78v-21.63c0-2.46-.1-3.84-.38-5.78,1.97.08,3.31.12,7.06.12h15.31c3.26,0,4.9-.08,7.15-.28v7.41c-2.21-.2-3.94-.28-7.15-.28h-12.48v5.82h10.37c3.17,0,4.32-.04,7.2-.28v7.33c-2.26-.2-3.89-.28-7.2-.28h-10.37v6.65h12.38c3.65,0,5.76-.08,7.83-.28v7.41Z"/>
      <path class="cls-86" d="M237.25,84.04c-.91-3.61-3.46-5.39-7.58-5.39-5.86,0-9.26,3.8-9.26,10.34s3.55,10.38,9.5,10.38c2.64,0,4.9-.91,6.29-2.5.82-.95,1.15-1.74,1.44-3.41l9.99,1.23c-.91,3.37-1.97,5.31-3.98,7.25-2.98,2.81-7.63,4.32-13.44,4.32s-10.8-1.5-14.21-4.36c-3.55-2.97-5.57-7.61-5.57-12.91s2-9.96,5.81-13.03c3.3-2.67,8.16-4.12,13.78-4.12,6.19,0,11.04,1.74,14.16,5.19,1.54,1.62,2.35,3.09,2.98,5.43l-9.89,1.58Z"/>
      <path class="cls-86" d="M288.23,72.55c-.29,1.62-.38,3.09-.38,5.86v21.23c0,2.58.1,3.92.38,5.86h-10.32c.29-1.66.38-3.13.38-5.86v-7.68h-16.18v7.68c0,2.58.1,4.08.38,5.86h-10.32c.29-1.62.38-3.09.38-5.86v-21.23c0-2.73-.1-4.16-.38-5.86h10.32c-.29,1.86-.38,3.41-.38,5.86v6.58h16.18v-6.58c0-2.73-.1-4.32-.38-5.86h10.32Z"/>
      <path class="cls-86" d="M314.72,99.53c0,2.38.1,4.12.38,5.98h-10.61c.29-1.86.38-3.49.38-5.98v-19.96h-5.66c-3.02,0-3.84.04-7.25.28v-7.57c1.58.16,4.22.28,7.15.28h21.03c3.36,0,5.28-.08,7.49-.28v7.57c-2.16-.2-4.03-.28-7.49-.28h-5.42v19.96Z"/>
      <path class="cls-86" d="M341.89,72.55c-.29,1.62-.38,2.97-.38,5.86v21.23c0,2.73.1,4.2.38,5.86h-10.56c.29-1.54.38-3.21.38-5.86v-21.23c0-2.97-.1-4.12-.38-5.86h10.56Z"/>
      <path class="cls-86" d="M375.39,88.95c0-6.42-3.55-10.3-9.36-10.3s-9.46,3.92-9.46,10.3,3.6,10.46,9.46,10.46,9.36-3.96,9.36-10.46ZM385.38,88.87c0,10.46-7.73,17.39-19.39,17.39s-19.35-6.77-19.35-17.27,7.58-17.15,19.39-17.15,19.35,6.66,19.35,17.03Z"/>
      <path class="cls-86" d="M413.12,88.75c1.39,1.7,2.3,2.97,3.46,4.71-.19-1.82-.29-3.64-.29-5.86v-9.03c0-2.61-.1-4.2-.38-6.02h10.23c-.29,1.78-.38,3.45-.38,6.02v21.03c0,2.42.14,4.24.38,5.9h-10.51c-.86-1.5-1.97-2.97-3.6-5.03l-8.88-11.05c-1.3-1.58-2.11-2.77-3.46-4.87.24,1.78.34,3.96.34,5.9v8.87c0,2.73.1,4.48.38,6.18h-10.22c.29-1.54.38-3.29.38-6.22v-20.84c0-2.3-.1-4.08-.38-5.9h10.42c.48,1.07,1.54,2.65,3.41,4.95l9.12,11.25Z"/>
    </g>
    <g>
      <path class="cls-93" d="M38.25,82.01c3.36,0,5.33-1.54,5.33-4.28s-1.87-4.16-5.33-4.16h-7.15v8.44h7.15ZM21.16,99.8c.29-1.74.38-3.53.38-5.86v-21.43c0-2.14-.1-3.92-.38-5.78,2.26.08,3.98.12,7.06.12h10.51c9.5,0,14.74,3.76,14.74,10.66s-5.47,11.25-14.79,11.25h-7.58v5.07c0,2.34.14,4.28.38,5.98h-10.32Z"/>
      <path class="cls-93" d="M75.21,80.55c2.83,0,4.56-1.43,4.56-3.68s-1.54-3.37-4.51-3.37h-7.54v7.05h7.49ZM82.03,99.8c-.29-1.27-.87-2.89-2.35-6.18s-2.12-4.35-3.31-5.23c-1.01-.75-2.21-1.07-3.74-1.07h-4.9v6.5c0,2.69.1,4.16.38,5.98h-10.32c.29-1.82.38-3.01.38-5.94v-21.31c0-2.46-.1-3.92-.38-5.82,2.11.08,3.89.12,7.15.12h12.48c7.78,0,12.29,3.33,12.29,9.03,0,2.81-.96,5.03-2.83,6.5-1.2.91-2.21,1.35-4.56,1.98,2.45.63,3.55,1.54,5.09,4.36.72,1.27,1.39,2.61,3.55,6.89.53,1.11,1.1,2.1,2.3,4.2h-11.23Z"/>
      <path class="cls-93" d="M124.8,83.24c0-6.42-3.55-10.3-9.36-10.3s-9.46,3.92-9.46,10.3,3.6,10.46,9.46,10.46,9.36-3.96,9.36-10.46ZM134.78,83.16c0,10.46-7.73,17.39-19.39,17.39s-19.35-6.77-19.35-17.27,7.58-17.15,19.39-17.15,19.35,6.66,19.35,17.03Z"/>
      <path class="cls-93" d="M160.07,93.82c0,2.38.1,4.12.38,5.98h-10.61c.29-1.86.38-3.49.38-5.98v-19.96h-5.66c-3.02,0-3.84.04-7.25.28v-7.57c1.58.16,4.22.28,7.15.28h21.03c3.36,0,5.28-.08,7.49-.28v7.57c-2.16-.2-4.03-.28-7.49-.28h-5.42v19.96Z"/>
      <path class="cls-93" d="M206.78,100.07c-2.06-.2-3.79-.28-7.92-.28h-15.12c-3.65,0-4.99.04-7.06.12.29-1.58.38-3.05.38-5.78v-21.63c0-2.46-.1-3.84-.38-5.78,1.97.08,3.31.12,7.06.12h15.31c3.26,0,4.9-.08,7.15-.28v7.41c-2.21-.2-3.94-.28-7.15-.28h-12.48v5.82h10.37c3.17,0,4.32-.04,7.2-.28v7.33c-2.26-.2-3.89-.28-7.2-.28h-10.37v6.65h12.38c3.65,0,5.76-.08,7.83-.28v7.41Z"/>
      <path class="cls-93" d="M237.31,78.33c-.91-3.61-3.46-5.39-7.58-5.39-5.86,0-9.26,3.8-9.26,10.34s3.55,10.38,9.5,10.38c2.64,0,4.9-.91,6.29-2.5.82-.95,1.15-1.74,1.44-3.41l9.99,1.23c-.91,3.37-1.97,5.31-3.98,7.25-2.98,2.81-7.63,4.32-13.44,4.32s-10.8-1.5-14.21-4.36c-3.55-2.97-5.57-7.61-5.57-12.91s2-9.96,5.81-13.03c3.3-2.67,8.16-4.12,13.78-4.12,6.19,0,11.04,1.74,14.16,5.19,1.54,1.62,2.35,3.09,2.98,5.43l-9.89,1.58Z"/>
      <path class="cls-93" d="M288.28,66.84c-.29,1.62-.38,3.09-.38,5.86v21.23c0,2.58.1,3.92.38,5.86h-10.32c.29-1.66.38-3.13.38-5.86v-7.68h-16.18v7.68c0,2.58.1,4.08.38,5.86h-10.32c.29-1.62.38-3.09.38-5.86v-21.23c0-2.73-.1-4.16-.38-5.86h10.32c-.29,1.86-.38,3.41-.38,5.86v6.58h16.18v-6.58c0-2.73-.1-4.32-.38-5.86h10.32Z"/>
      <path class="cls-93" d="M314.78,93.82c0,2.38.1,4.12.38,5.98h-10.61c.29-1.86.38-3.49.38-5.98v-19.96h-5.66c-3.02,0-3.84.04-7.25.28v-7.57c1.58.16,4.22.28,7.15.28h21.03c3.36,0,5.28-.08,7.49-.28v7.57c-2.16-.2-4.03-.28-7.49-.28h-5.42v19.96Z"/>
      <path class="cls-93" d="M341.94,66.84c-.29,1.62-.38,2.97-.38,5.86v21.23c0,2.73.1,4.2.38,5.86h-10.56c.29-1.54.38-3.21.38-5.86v-21.23c0-2.97-.1-4.12-.38-5.86h10.56Z"/>
      <path class="cls-93" d="M375.45,83.24c0-6.42-3.55-10.3-9.36-10.3s-9.46,3.92-9.46,10.3,3.6,10.46,9.46,10.46,9.36-3.96,9.36-10.46ZM385.43,83.16c0,10.46-7.73,17.39-19.39,17.39s-19.35-6.77-19.35-17.27,7.58-17.15,19.39-17.15,19.35,6.66,19.35,17.03Z"/>
      <path class="cls-93" d="M413.18,83.04c1.39,1.7,2.3,2.97,3.46,4.71-.19-1.82-.29-3.64-.29-5.86v-9.03c0-2.61-.1-4.2-.38-6.02h10.23c-.29,1.78-.38,3.45-.38,6.02v21.03c0,2.42.14,4.24.38,5.9h-10.51c-.86-1.5-1.97-2.97-3.6-5.03l-8.88-11.05c-1.3-1.58-2.11-2.77-3.46-4.87.24,1.78.34,3.96.34,5.9v8.87c0,2.73.1,4.48.38,6.18h-10.22c.29-1.54.38-3.29.38-6.22v-20.84c0-2.3-.1-4.08-.38-5.9h10.42c.48,1.07,1.54,2.65,3.41,4.95l9.12,11.25Z"/>
    </g>
    <text class="cls-89" transform="translate(18.24 92.86) scale(1.21 1)"><tspan x="0" y="0">PROTECHTION</tspan></text>
  </g>
  <text class="cls-23" transform="translate(18.32 95.25)"><tspan x="0" y="0">PROTECHTION</tspan></text>
</svg>